<?xml version="1.0" encoding="utf-8"?>
<!-- Generator: Adobe Illustrator 22.1.0, SVG Export Plug-In . SVG Version: 6.00 Build 0)  -->
<svg version="1.1" id="Layer_1" xmlns="http://www.w3.org/2000/svg" xmlns:xlink="http://www.w3.org/1999/xlink" x="0px" y="0px"
	 viewBox="0 0 336 235" style="enable-background:new 0 0 336 235;" xml:space="preserve">
<style type="text/css">
	.st0{fill:#63C3D1;}
</style>
<g>
	<path class="st0" d="M153.4,93c-0.1,0.3,0.1,0.4,0.4,0.4c-0.3,0.5-0.7-0.1-1-0.3c0-0.1,0.1-0.1,0.1-0.2c0.1,0.1,0.1,0.1,0.2,0.2
		c0-0.1,0-0.2,0-0.2C153.3,92.8,153.3,92.9,153.4,93L153.4,93z M76.3,69.6L76.3,69.6c-0.1,0.1-0.3,0.1-0.4,0.2
		c-0.3-0.7-0.5-0.6-1.2-0.6c0.4-0.3,0.8-0.5,1.1-0.8c-0.1,0-0.2-0.2-0.4-0.3c0.2-0.1,0.4-0.2,0.6-0.3c-0.4-0.2-0.6-0.4-1.1-0.3
		c-0.5,0.2-0.7,0.3-1.1,0.1c-0.4-0.2-0.7-0.1-1.2,0c-0.2,0-0.5,0.5-0.6,0.6c0.2,0.1,1.1,0.3,1.1,0.5c0,0.4,0,1-0.6,0.9
		c-0.3-0.1-0.6-0.7-0.9-0.6c-0.3,0.1-0.8,0.4-0.4,0.7c0.7,0.6,1.5,0.8,2.1,1.5c0.3,0.3,0.5,0.8,0.9,0.9c0.3,0.1,0.9-0.2,0.7-0.6
		c0.6,0.2,2.1-0.8,1.1-1.1c0.1-0.1,0.3-0.1,0.5-0.2C76.4,69.9,76.4,69.8,76.3,69.6L76.3,69.6z M152.3,93L152.3,93
		c0,0.1-0.1,0.4,0.1,0.6c0-0.3,0-0.5,0.1-0.7c-0.1,0-0.3-0.1-0.4,0C152.2,93,152.2,92.9,152.3,93L152.3,93z M92.9,78.5L92.9,78.5
		c0.3,0.3,1.1,0.7,1.4,0.2c0.3-0.5,0.1-0.8,0.3-1.3C94,76.4,92.2,77.8,92.9,78.5L92.9,78.5z M97.9,72.2c-0.2,0.1-1,0.5-1,0.7
		c0.2,0.5,0.8,0.1,1-0.3c0.2-0.5,2,0.7,2.4,0.9c-0.1,0.5-0.8,0.5-1.2,0.6c0.3,0.1,0.7,0,0.6,0.5c0.3-0.2,0.8-0.3,0.9-0.7
		c0.3,0.2,0.8,0.4,0.8,0.9c-0.6,0-0.7,0-1.3,0.3c0.3,0.1,0.6,0.3,0.9,0.2c0.6-0.1,0.5-0.1,0.7,0.5c-0.4-0.1-0.7-0.1-1.1-0.2
		c0,0.2,0.1,0.5,0.1,0.7c-0.3,0-0.5,0.1-0.8,0.1c0.9,0.4,1.8,0.8,2.8,1.1c0.5,0.2,0.6,0.3,0.9,0.7c0.4,0.4,0.7,0.4,1.2,0.5
		c-0.1,0.2-0.2,0.4-0.4,0.6c0.4,0,1.1-0.2,1.4,0c0.6,0.3,0.4,0.6,0.3,1.2c-0.3,0-0.7-0.2-0.9,0c0.2,0.1,0.4,0.2,0.7,0.3
		c-0.7,0.3-0.9,0.7-1.5,0.3c0,0.5,0.2,1,0,1.5c-0.8-0.4-1.1-0.7-1.7-1.3c0.3-0.2,0.8-0.2,0.7-0.7c-0.2,0.1-0.7,0.4-0.9,0.3
		c-0.3-0.1-0.6-0.6-0.8-0.8c-0.3-0.2-0.5-0.2-0.7,0.1c-0.3,0.4,0.2,0.4,0.2,0.9c-0.2,0-0.5-0.1-0.7-0.1c0.1,0.2,0.2,0.5,0.2,0.7
		c0.4-0.1,0.4-0.3,0.6,0.1c0.1,0.3,0.2,0.7,0.3,1c0.1-0.5,0.4-0.3,0.7-0.1c0.4,0.2,0.4,0.3,0.5,0.8c0.1,0.4,0.4,0.3,0.6,0.6
		c0.1,0.2,0.1,0.8,0.1,1.1c-0.1-0.2-0.3-0.4-0.4-0.6c-0.3,0.5,0.4,0.6,0.2,1c-0.1,0-0.2,0-0.3-0.1c0.1,0.2,0.1,0.4,0.2,0.5
		c-0.2,0.1-0.7-0.6-1-0.8c-0.5-0.3-1-0.7-1.6-1c0.1,0.1,0.1,0.3,0.1,0.4c-0.3-0.1-0.6-0.3-0.9-0.4c0.2,0.3,0.3,0.6,0.5,0.9
		c0.1,0.2,0.6,0.2,0.8,0.3c0.3,0.2,0.6,0.5,1,0.7c0.3,0.2,0.2,0.4,0.1,0.8c-0.9-0.2-1.7-0.4-2.6-0.7c-0.3-0.1-0.3-0.5-0.5-0.5
		c-0.4-0.1-0.9-0.2-1.3-0.3c0-0.1,0.1-0.1,0.1-0.2c-0.4,0-0.7-0.2-1.1-0.4c0.2-0.1,0.5-0.2,0.7-0.3c-0.4-0.2-0.8-0.2-1.1-0.5
		c-0.4-0.7-0.4-1.1-1.1-0.7c0-0.3-0.2-0.4-0.4-0.4c0,0.1-0.1,0.3-0.1,0.4c-0.4-0.1-0.8-0.3-1.1,0c-0.3,0.3-0.9,0.2-1.3,0.2
		c-0.3,0-0.7-0.5-0.6-0.8c0.2-0.4,0.8-0.5,0.7-0.9c0.6,0.1,1.4,0.3,2,0.1c0.2,0,1.1-0.2,1.2-0.3c0.1-0.3-0.6-0.7-0.7-0.8
		c0.5-0.5,1.1-1.1,1.6-1.6c0.1-0.1,0.4-0.2,0.3-0.4c-0.2-0.4-0.5-0.8-0.7-1.2c-0.3-0.6-1-0.5-1.4-1c-0.2-0.4-0.2-0.4-0.6-0.2
		c-0.3,0.1-0.7,0.2-1,0.4c0-0.8,0.1-0.7,0.9-0.9c-0.4-0.3-1.2-1.4-1.7-0.9c0-0.2-0.1-0.4-0.1-0.7c0-0.2-0.4,0-0.5,0
		c-0.4-0.2-0.3-1-0.9-0.5c0.4,0.1,0.5,0.3,0.7,0.8c-1,0.2-1.7,0-2.7-0.3c0.3,0.2,0.5,0.5,0.8,0.7c-0.3,0.1-0.4-0.3-0.7-0.3
		c-0.1,0-0.2,0.3-0.3,0.3c-0.2-0.1-0.4-0.2-0.6-0.2c-0.6-0.2-1.5-0.1-2.1-0.1c-0.2,0-0.8-0.1-1-0.3c-0.4-0.3,0.1-0.5-0.6-0.5
		c-0.3,0-0.5,0.3-0.9,0.1c-0.5-0.3-1-0.6-1.3-1.2c0.7,0.1,1.3,0.1,2,0.2C83.6,72,83,72.1,82.1,72c-0.1,0-0.2-1-0.2-1.2
		c0-0.3,0.4-1,0.5-1.3c0.3-0.8,0.7-1.3,1.5-1.6c1-0.4,1.4-0.4,2.4-0.3c-0.1,0.2-0.1,0.5-0.2,0.7c0.7-0.1,1.3-0.4,2-0.7
		c0.3-0.1,0.7,0,1,0c0.4,0,0.3,0.5,0.5,0.8c0.2,0.3,0.4,0.2,0.5,0.6c0.3,0.5,0.2,0.6-0.1,1.1c-0.2,0.4,0.1,0.4,0.4,0.2
		c0.5-0.5,0.4-0.4,1-0.1c0.2,0.1,0.6-0.5,0.7-0.6c0.2-0.2,0.8-0.1,1-0.2c0.5-0.1,1.4,0.3,1.8,0.7c0.3,0.3,1.1,1.6,1.4,1.4
		C96.7,71.5,97.7,71.4,97.9,72.2L97.9,72.2L97.9,72.2z M71.1,63.7L71.1,63.7c-0.2,0-0.4,0.1-0.6,0.3c0.2,0,0.5,0,0.7,0
		c-0.8,0.5,0.3,0.6,0.7,0.5c0.6-0.1,1.2-0.2,1.7-0.2c-0.1,0.2-0.3,0.3-0.5,0.3c0,0,0.1,0.1,0.1,0.1c-0.2,0-0.5,0.1-0.6,0.3
		c0.2,0,0.5,0.1,0.7,0.2c-0.1,0-0.3,0.1-0.4,0.1c0,0.4,0.3,0.4,0.7,0.4c0.2,0.1,0.2-0.2,0.4-0.2c0.5,0,1.1,0.2,1.5-0.1
		c-0.1-0.1-0.3-0.2-0.4-0.3c0.2-0.1,0.2-0.3,0.2-0.5c0.1,0.1,0.2,0.1,0.3,0.2c0.1-0.3-0.1-0.4-0.2-0.7c0-0.2,0.1-0.5,0.1-0.7
		c0-0.1-0.3-0.6-0.4-0.6c-0.2-0.1-0.5-0.3-0.7-0.2c-0.5,0.3-0.9-0.1-1.6,0.1c-0.7,0.3,0.5,0.3,0.5,0.6c-0.1,0-0.3,0-0.4,0
		c0.2,0.2,0.4,0.5,0.5,0.7c-0.2-0.1-2-1.9-2-0.7c0.2,0,0.3,0,0.5,0c-0.4,0.2-0.3,0.6,0.1,0.4C72.1,63.9,71.4,63.6,71.1,63.7
		L71.1,63.7z M71.1,75.1C71,75,70.9,75,70.8,74.9c-0.1,0-0.2,0-0.3,0c0.3,0.3,0.2,0.5,0.2,0.9c0.3-0.3,0.6-0.6,1.1-0.5
		c-0.3,0.4,0.2,0.3,0.2,0.6c0,0.2-0.7,0.4-0.9,0.4c-0.7,0.1-1.4-0.3-2-0.3c0.1-0.1,0.2-0.1,0.2-0.2c-0.4-0.1-0.8-0.2-1.2-0.3
		c0.1-0.1,0-0.3,0.1-0.4c-0.4-0.1-0.4,0.2-0.6,0.4c-0.3,0.2-0.4,0.3-0.8,0.3c-0.6,0.1-0.8,0.5-1.4,0.6c-0.9,0.1-1.7,0.1-2.6,0.2
		c-0.7,0.1-0.9-0.4-0.8-1.1c-1.2-0.1-2.7,0.2-3.2-1.4c0.8-0.2,1.8-0.6,2.5-0.5c0.5,0.1,1,0.2,1.5,0.2c0.2,0,1.3-0.2,0.6-0.3
		c-0.9-0.2-1.7-0.5-2.6-0.4c-0.6,0-1.3,0-1.9,0c-0.5,0-0.6-0.2-1-0.6c0.6-0.3,1.3-0.6,1.9-0.8c-0.6,0-1.2,0-1.8,0.1
		c0.1-0.1,0.1-0.2,0.1-0.3c-0.3,0-0.6,0-0.9,0c-0.1-0.6,0.5-0.9,0.8-1.2c-0.1,0-0.3-0.2-0.4-0.2c0.9-0.7,1.5-1,2.6-1.4
		c0.5-0.2,0.7-0.4,1.1-0.1c0.6,0.3,0.2,0.8-0.2,1.1c0.3,0,0.5,0,0.8-0.1c0.2,0,0.3-0.5,0.5-0.6c0.3-0.1,1.2,0.6,1.5,0.7
		c-0.1,0.2-0.2,0.3-0.4,0.5c0.5,0,0.5,0,0.7-0.4c0.1-0.2,0.7,0.1,0.9,0.1c-0.3-0.3-0.5-0.6-0.8-0.8c0.5-0.1,1.6,0,1.8,0.6
		c0.2,0.5,0.3,0.9,0.5,1.4c0.1,0.4,0.3,0.2,0.7,0c-0.2-0.5-0.4-1-0.5-1.5c-0.1-0.2-0.2-0.5-0.2-0.7c-0.1-0.2,0.3-0.3,0.1-0.6
		c0.2,0.1,0.8,0.5,0.9,0.3c0.2-0.4,0.5,0.1,0.9,0.3c0.8,0.4,1,1.7,1.3,2.5c0.1,0.4-0.2,0.8-0.1,1c0.1,0.3,1,0.6,1.2,0.7
		c0.6,0.4,1.3,0.8,1.9,0.7c0,0.4,0.1,1.4-0.4,0.6c0,0.1-0.1,0.2-0.2,0.3C71.6,74.6,71.2,74.4,71.1,75.1L71.1,75.1L71.1,75.1z
		 M73.8,76L73.8,76c0.1,0.1,0.2,0.2,0.3,0.3c0.1-0.2,0.1-0.1,0.2-0.2c0,0.2,0.2,0.3,0.4,0.3c0-0.1,0-0.1,0.1-0.2
		c0.2,0.5,1,0.6,1.4,0.7c0.5,0.1,0.9-0.4,1.3-0.6c-0.5-0.5-1-0.9-1.6-1.3c-0.3-0.2-0.6-0.6-0.9-0.3c-0.2,0.2-0.6,0.5-0.2,0.8
		c-0.1,0-0.1,0-0.2,0C74.3,75.9,74,75.5,73.8,76L73.8,76z M152.7,92.5L152.7,92.5c-0.1,0-0.1,0-0.2,0.1c0,0.1,0.1,0.1,0.1,0.2
		c0.2-0.2,0.3-0.3,0.5-0.4c0-0.1-0.1-0.1-0.1-0.2c0.4,0,0.3-0.5,0.1-0.5C152.9,91.9,152.2,92.1,152.7,92.5L152.7,92.5z M90.2,84.2
		L90.2,84.2c-0.6-0.4-0.7-0.5-1.4-0.4c0.6-0.6-1-1.4-1.3-1.6c-0.2-0.2-0.6-0.1-0.8-0.3c-0.3-0.3-0.4-0.4-0.7,0
		c-0.1-0.1-0.2-0.3-0.2-0.4c0.6-0.1,0.4-1-0.1-0.7c-0.5,0.2-0.5,0.7-0.7,1.3c-0.1,0.3-0.1,0.5-0.2,0.8c0,0.2,0.2,0.5,0.1,0.6
		c-0.1,0.2-0.7,0.6-0.9,0.9c0.2,0,1.2-0.3,1.3-0.2c0.1,0.1,0.2,1.1,0.4,1c0.3-0.2,0.6-0.7,0.9-0.8c0.5-0.2,0.4-0.6,0.9-0.8
		c-0.1,0.8,1.3,1,1.7,1.1C89.8,84.5,90,84.3,90.2,84.2L90.2,84.2z M80.2,65.8L80.2,65.8c0.2,0.4,0.8,0,1-0.1
		c0.2,0.4,0.2,0.5,0.6,0.5c0.4,0,0.7,0.2,0.8-0.3c0.1,0.1,0.2,0.2,0.3,0.3c0-0.2,0.1-0.4,0.1-0.5c0.5,0.2,0,0.8,0.5,0.8
		c0.5,0,1,0.1,1.6,0.1c0-0.1,0-0.3,0-0.4c0.3,0.4,1,0.5,1.1,0c0.1,0.6,0.9,0.2,1.3,0.1c0-0.2-0.1-0.4-0.1-0.6c0.5,0,0.2,0.6,0.6,0.7
		c0.4,0.1,0.6,0.2,1,0.2c0.2,0,1.2-0.1,1.3-0.3c0.1-0.5,0.3-0.5,0.8-0.6c-0.2-0.2-0.5-0.2-0.7-0.3c0.2-0.2,0.4-0.3,0.6-0.5
		C90,64.1,89,63.6,88,63.9c-0.4,0.1-0.8-0.1-1.3,0.1c-0.5,0.2-0.9,0.3-1.4,0.4c0.1,0.1,0.2,0.2,0.3,0.2c-0.5-0.1-1.2-0.4-1.6-0.4
		c-0.1,0-0.4,0.3-0.6,0.2c-0.2-0.1-0.5-0.3-0.7-0.4c-0.1-0.1-1.1-0.6-1.1-0.7c-0.1-0.3,0.9,0.1,1-0.4c-0.3-0.1-0.5-0.2-0.8-0.2
		c-0.4-0.1-0.2-0.3-0.5-0.5c-0.5-0.3-1,0.1-1.5,0c-0.5-0.1-0.8-0.6-1.2-0.6c-0.5-0.1-1.2-0.3-1.7-0.2c-0.8,0.2-0.6,0.6,0,1.1
		c0.5,0.5,0.8,0.4,1.5,0.3c0.6-0.1,0.8-0.3,1.2,0.2c0.2,0.3,0.9,0.8,0.5,1.3C79.7,65.1,79.9,65.2,80.2,65.8L80.2,65.8z M95,77.6
		c0.3-0.4,1-0.3,1.1,0.4C96,78,94.7,78,95,77.6L95,77.6L95,77.6z M82.9,51.9c-0.5,0.2-0.9,0.4-1.3,0.5c-0.5-0.2-0.9-0.4-1.4-0.7
		c0.7-0.4,1.6-0.9,2.3-0.3c0.5-1.2,1.9-0.6,2.9-0.7c-0.3-0.1-0.5-0.3-0.8-0.4c0.4,0,0.8,0,1.1,0c-0.1-0.2-0.2-0.4-0.2-0.6
		c0.3,0,0.8-0.1,1.1,0.1c0.4,0.3,0.9,0.8,1.3,0.9c1,0.2,2,0.5,3,0.7c-0.9-0.5-1.8-1-2.7-1.5c0.3-0.3,0.7-0.8,1.1-0.9
		c0.4,0,0.7,0,1.1-0.1c0.3,0,0.3-0.3,0.5-0.4c0.3-0.1,1.2,0.1,1.5,0.3c0.5,0.2,1.1,0.4,1.6,0.7c-0.5-0.4-0.9-0.8-1.4-1.1
		c0.8,0,1.5,0,2.3,0c0.5,0,1.1,0.6,1.6,0.9c-0.1-0.3-0.3-0.5-0.4-0.8c0.9-0.1,1.9-0.4,2.9-0.4c1,0,2,0.3,3,0.4
		c-0.5,0.3-1,0.6-1.6,0.9c1-0.2,1.8-0.5,2.8-0.3c1.1,0.2,2.1,0.5,3.2,0.8c-0.8,0.4-1.9,1.3-2.8,1.4c-1.2,0.1-2.5,0.2-3.7,0.3
		c0.6,0.1,1.1,0.2,1.7,0.3c-1,0.3-1.9,0.6-2.9,0.9c1.6-0.3,3.1-0.6,4.7-0.9c0,0.8-2.1,1.3-2.7,1.7c-0.5,0.3-1.1,0.9-1.6,1
		c-0.6,0.1-1.2,0.3-1.8,0.4c0.4,0,0.8,0,1.1,0.1c-0.4,0.5-0.7,0.6-1.2,0.9c-0.4,0.2-0.9-0.1-1.2-0.2c0.1,0.2,0.1,0.4,0.2,0.6
		c-1.1,0.2-2.1,0.3-3.2,0.4c0.4,0,2.1-0.2,2,0.5c-0.6,0-1.2,0-1.8,0c0.4,0.1,1.8,0.2,1.7,0.8c-0.5,0.1-1,0.1-1.5,0.2
		c0.3,0.2,0.6,0.3,0.9,0.5c-0.4,0.5-0.5,0.6-1.1,0.9c-0.3,0.1-1-0.3-1.2-0.2c-0.2,0.2,0.6,0.4,0,0.9c-0.2,0.2-1.1,0.8-0.9,1.1
		c0.2,0.3,0.2,0.2,0.5,0c0.3-0.2,0.3,0,0.6,0.1c0.2,0.1,0.1,0.5,0.2,0.7c0,0.2-0.4,0.2-0.5,0.3c-0.2,0.1-0.3-0.2-0.4-0.2
		c-0.1,0.1-0.2,0.3-0.4,0.4c-0.5,0.2-1,0.3-1.5,0.5c0.1-0.4,0.3-0.6-0.1-0.9c-0.2-0.2-0.4,0.3-0.8-0.1c0,0.7-0.9,0.3-1-0.1
		c0.1,0.5-0.4,0.3-0.6,0.2c-0.3-0.1-0.4,0.3-0.9,0.3c-0.4,0-0.8-0.1-1.1-0.1c-0.4,0-0.7,0.3-0.8-0.3c-0.2,0.7-1,0.2-1-0.3
		c-0.3,0.4-0.5,0.7-0.8,0.2c0.3-0.2-0.1-0.4,0.1-0.5c0.1-0.2,0.6-0.3,0.8-0.4c0.6-0.3,0.9-0.1,1.4-0.6c-0.7-0.1-0.7-0.1-1.1-0.8
		c0.6-0.2,0.9-0.2,1.5-0.1c0.4,0.1,0.5,0.7,1,0.9c1.2,0.3,1.7-0.4,2.4-1.4c-0.4,0.5-1.3,1.5-2,1c-0.9-0.7-0.2-1.2,0.1-2
		c-0.4,0.4-0.8,1-1.3,0.9c-0.8-0.2-1.5-0.2-0.7-1c0.9-0.9,2.5-0.7,3.4-0.2c-0.4-0.7-0.9-1.4-1.5-1.8c-0.7-0.5-1.9-0.4-1.3-1.6
		c0,0.1,2.1,0.1,2.2,0.1c0.7,0.2,1.5,0.9,2.2,1.3c-0.5-0.5-1-0.9-1.5-1.4c1.5-0.3,3.1-0.6,4.6-1c-0.2-0.1-0.5-0.2-0.7-0.3
		c0.4-0.3,0.8-0.7,1.1-1c-0.9,0.4-1.5,0.7-2.3,1.4c-0.2,0.2-1,0.2-1.2,0.3c-0.5,0.1-1,0.2-1.4,0.3c0.3-0.2,0.6-0.5,0.9-0.7
		c-0.4,0.1-0.8,0.2-1.2,0.3c0.1-0.1,0.2-0.2,0.3-0.3c-0.2,0-0.7,0.1-0.7,0.3c-0.1,0.5-0.1,0.4-0.6,0.4c-0.6,0-1.2-0.1-1.8-0.2
		c0.7-0.6,1.1-0.8,1.9-1c-1,0.1-1.3,0.1-2.1,0.7c-0.6,0.4-1.4,0-2.1-0.2c0.7-0.3,1.1-0.3,1.8-0.3c0.7-0.1,1.2-0.3,1.9-0.7
		c-0.7,0.2-1.5,0.5-2.3,0.5c-0.8,0-1.6,0.4-2.2-0.1C82.1,52.6,82.5,52.3,82.9,51.9L82.9,51.9L82.9,51.9z M72.6,60.1L72.6,60.1
		c-0.3-0.4-0.7-0.3-1.1-0.2c-0.5,0.1-0.2,0.4,0.2,0.4C72,60.2,72.3,60,72.6,60.1L72.6,60.1z M90.6,87.4L90.6,87.4
		c0.2-0.2,1-1,0.3-1.2c-0.3-0.1-0.6,0.3-0.6,0.5C90.2,87.1,90.3,87.2,90.6,87.4L90.6,87.4z M150.3,100.5L150.3,100.5
		c-0.1,0.1-0.2,0.2-0.3,0.2c0.8,0.7,1.8-0.6,2.6-0.8c0.3-0.1,0.4,0.2,0.5-0.2c0.1-0.3,0.2-0.6,0.3-0.9c0.1-0.4-0.1-0.8-0.3-1.1
		c0.5-0.4,0.7-0.4,0.7-1.1c-0.3,0.1-0.3-0.4-0.6-0.7c-0.1-0.2-0.6,0.1-0.8,0.1c0-0.1,0.1-0.1,0.1-0.2c-0.6-0.4-1.2,0.3-1.5,0.8
		c0.2,0.1,0.4,0.1,0.6,0.2c-0.2,0.2-0.4,0.4-0.7,0.3c-0.2-0.1-0.5-0.2-0.6-0.1c-0.3,0.2-0.2,0.2-0.1,0.6c0.1,0.2-0.2,0.4-0.4,0.5
		c0.3,0.2,0.6,0.3,1,0.3c-0.3,0.2-0.5,0.5-0.8,0.9c0.3-0.1,0.7-0.2,1-0.1c-0.2,0-0.7,0-0.8,0.2c-0.2,0.2-0.3,0.3-0.6,0.4
		c0.1,0,0.3,0.1,0.4,0.1c-0.1,0.1-0.3,0.2-0.4,0.2C149.9,100.4,150.1,100.4,150.3,100.5L150.3,100.5z M87,86.2L87,86.2
		c0,0.1,0.1,0.4,0.2,0.4c0.7-0.1,1.5-0.4,1.6-1.3c-0.2,0-0.4,0-0.5,0c-0.4,0.1-0.7,0.1-1.1,0.4C87,85.9,86.9,85.9,87,86.2L87,86.2z
		 M78.9,65.3c0.2,0.9-0.5,0.8-1.1,0.9c-0.3-0.2-1.4-0.6-1.5-0.9c-0.2-0.7,1.2-1,1.5-1.1C78.3,64.1,78.8,64.8,78.9,65.3L78.9,65.3
		L78.9,65.3z M69.1,57.9c0.1-0.2,0.1-0.3,0.2-0.5c-0.2,0-0.5,0-0.7,0c0.3-0.8,0.7-0.6,1.4-0.7c0.7-0.1,0.9,0.3,1.2,0.9
		c0.3-0.2,1.5-0.7,1.3,0.3c0.5-0.1,0.6-0.1,1,0.2c0.2,0.2,0.2,0.2,0.1,0.4c-0.1,0.2,0.2,0.4,0.4,0.6c0.9,1-0.9,1-1.1,0.7
		c-0.2-0.4-0.2-0.6-0.7-0.7c-0.4-0.1-0.9,0-1.2-0.3c-0.3-0.3-1.7,1-1.9-0.3c0.5-0.3,1.5,0.3,1.4-0.5c-0.2,0-0.4-0.1-0.7-0.1
		c0.1-0.1,0.1-0.2,0.2-0.2C69.7,57.3,69.5,58,69.1,57.9L69.1,57.9L69.1,57.9z M69.3,61.3L69.3,61.3c0.2,0.2,0.5-0.1,0.2-0.4
		c-0.2-0.2-0.3-0.4-0.5-0.5c-0.3-0.2-0.5-0.5-0.8-0.3c0.1,0.2,0.1,0.5,0.2,0.7C68.6,61.1,69.1,61.2,69.3,61.3L69.3,61.3z M74.4,55.4
		L74.4,55.4c-0.2-0.5-1.5-0.4-1.1,0.3C73.9,55.9,74.8,56.5,74.4,55.4L74.4,55.4z M76,59.4L76,59.4c-0.2,0.1-0.5,0.1-0.8,0.2
		c0.2,0.1,0.6,0.5,0.7,0.5c0.3,0,0.5-0.1,0.8-0.2c0.3-0.1,0.8-0.1,0.9-0.3c0.1-0.2-0.2-0.4,0.1-0.7c-0.3-0.1-0.7-0.1-1-0.2
		c-0.2-0.1-0.5-0.4-0.7-0.5c-0.4-0.2-1.8-0.4-1,0.4c-0.1,0-0.2,0-0.3,0C75,59.3,75.6,58.9,76,59.4L76,59.4z M63.1,59.6L63.1,59.6
		c-0.8,0.1-1.1,0-1,0.9c0.4,0,0.7,0.5,1,0.4c0.5-0.1,1-0.2,1.4-0.4c0.3-0.1,0.2-0.2,0.2-0.5c0.1-0.2-0.5,0-0.7-0.3
		c0.4-0.1,0.8-0.1,1.1-0.5C64.6,59.2,63.7,59.5,63.1,59.6L63.1,59.6z M64.6,62.9L64.6,62.9c0.3,0.2,0.6,0.4,0.9,0.6
		c-0.2,0.1-0.4,0.2-0.6,0.3c0.2,0.1,1,0.3,1,0.5c-0.1,0.5-0.5,0.3-1,0.2c-0.2,0-1.1,0.1-1.1-0.2c-0.1-0.6-0.2-0.5-0.7-0.5
		c0.1,0,0.2-0.1,0.2-0.1c-0.3-0.3-0.8-0.8-1.2-0.7c-0.8,0.1-0.5-0.2-1.1-0.4c-0.1,0-1.1,0-1.1,0.3c0,0.2,0.8,0.3,1,0.4
		c-0.6,0-1.1-0.1-1.7,0.1l0,0.3c0.4,0.2,1.1,0.1,1.6,0c-0.2,0.1-2.1,0-2,0.5c0,0.4,1.6,0,1.8-0.1c-0.6,0.5-1.8,0.1-2.2,0.9
		c0.5,0.2,0.7,0.2,1.3,0.1c0,0.1,0,0.2-0.1,0.2c0.2,0.1,0.4,0.1,0.6,0.2c-0.2-0.4,0.3-0.4,0.4,0.1c0.5-0.3,0.6-0.4,0.8-1
		c0.4,0.1,0.2,0.4,0.2,0.8c0.3,0,1,0.1,1.1-0.3c0.2,0.5,0.9,0.2,1.3,0c-0.6,0.7-1.9,0.8-2.8,1.1c1.1,0.7,1.5,0.5,2.7,0.1
		c0.6-0.2,1.3-0.5,1.9-0.7c0.4-0.1,0.6,0.2,0.9,0.2c0.2,0,0.2-0.3,0.5-0.3c0.3,0,0.6,0,0.9,0c0.4,0,0.6-0.5,0.7-0.9
		c0.1-0.5,0.1-1-0.6-0.9c-0.8,0.1-0.1,0.4-0.5,0.8c-0.1-0.4-0.3-0.5-0.6-0.6c-0.2-0.1-0.3-0.5-0.5-0.7c-0.4-0.3-0.1-1.3-0.9-1
		C65.2,62.4,64.9,62.6,64.6,62.9L64.6,62.9z M76.2,55.3L76.2,55.3c0.1,1,1.2,1,1.9,0.7c-0.2,0.3-0.5,0.3-0.9,0.4
		c-0.3,0-0.2,0.4,0.1,0.4c0.3,0,0.2,0.5,0.5,0.2c0.2-0.2,0.3-0.3,0.6-0.2c0,0.1,0,0.1,0,0.2c0.3,0.2,0.4-0.1,0.7-0.2
		c0.1,0,0.4,0.3,0.3-0.2c0.5,0.2,1.3-0.1,1.6,0.3c-0.4,0.1-0.8,0.1-1.2,0.2c0.6,0.2,1.2,0.1,1.8,0.1c-1.1,0.2-2.2,0.1-3.3,0.6
		c0.3,0.2,0.7,0.3,1,0.4c-0.2,0-0.4,0-0.6,0c0.3,0.5,1.2,0.3,1.7,0.4c-0.4,0-0.7,0.1-1.1,0.1c0.5,0.8,1.6,0.6,2.3,0.7
		c0-0.2-0.2-0.3-0.4-0.4c0.5,0,0.7,0.2,1.1,0.5c-0.2-0.4-0.4-0.7-0.5-1.1c0.4,0.4,0.7,0.7,1.1,1c0.2-0.4,0.3-0.6,0-1
		c1.5,0.8-0.1-0.6,0.9-0.9c-0.1,0.3,0.1,0.6,0.2,0.9c0.3-0.2,0.7-0.4,0.5-0.8c0.3,0.2,1.3-0.3,1.8-0.5c-0.2-0.3-0.5-0.5-0.7-0.8
		c0,0.1-0.2,0.3-0.2,0.4c-0.1-0.7-0.9-0.3-1.2-0.2c0.4-0.8,0.6-1.1-0.3-1.2c0.6-0.5-0.2-1.1-0.8-0.7c0.1,0.2,0.2,0.4,0.3,0.6
		c-0.3,0-0.6-0.1-0.8-0.4c-0.1-0.2,0.2-0.7-0.3-0.5c-0.5,0.1-0.9-0.1-1.2-0.4c-0.5-0.6-0.8-1.1-1.5-1.3c-0.4-0.1-1.1-0.4-1.5,0.1
		c0.4,0.1,0.8,0,1.2,0.2c-0.4,0.6-1.7-0.3-2.1,0.7c0.3,0.1,0.8,0,1.1,0.3c-0.3,0.1-1.8,0.1-1.3,0.6c-0.2,0.1-0.5,0.2-0.7,0.3
		c0.4,0.2,0.6,0.1,1,0.2c-0.1,0-0.1,0.1-0.2,0.1c0.4,0.2,0.8-0.2,1.1,0c-0.1,0-0.2,0.2-0.4,0.2c0.1,0.1,0.2,0.2,0.2,0.2
		c-0.1,0-0.3-0.1-0.4-0.1C77.1,55.3,76.7,55.3,76.2,55.3L76.2,55.3z M69.6,63.2c0.3-0.3,1.2-0.3,1.5-0.3
		C71.3,63.7,69.9,63.6,69.6,63.2L69.6,63.2L69.6,63.2z M58.4,63.3c0.1,0.3-0.4,0.7-0.6,1c-0.1,0.2-0.8,0.3-0.9,0
		C56.8,63.9,58.1,63.4,58.4,63.3L58.4,63.3L58.4,63.3z M153.2,93.7L153.2,93.7c0,0-0.1,0-0.1,0.1l0.1,0.1
		C153.2,93.8,153.3,93.7,153.2,93.7L153.2,93.7z M67.4,68.3L67.4,68.3c0.4,0.1,0.5,0.2,0.8,0.5c0.3,0.3,0.4,0.6,0.8,0.4
		c0.3-0.1,0.5-0.6,0.5-0.8c0-0.4-0.3-0.4-0.6-0.7C68.4,67.8,67.7,67.6,67.4,68.3L67.4,68.3z M70.3,65.2L70.3,65.2
		c-0.2-0.6-0.5-0.5-1-0.4C68.8,65.6,70,65.3,70.3,65.2L70.3,65.2z M69.4,62.4c0.3-0.1,0.6-0.2,0.9,0c0.2,0.1,0.4,0.2,0.6,0.4
		c-0.3,0.3-0.8,0.2-1.2,0.2C69.6,62.6,69.5,62.7,69.4,62.4L69.4,62.4L69.4,62.4z M78.8,60.7c-0.5,0-2.1,0.2-2.3-0.4
		c0.8-0.5,1.8-0.4,2.7-0.1C79.1,60.4,78.9,60.5,78.8,60.7L78.8,60.7L78.8,60.7z M90.3,69.2L90.3,69.2c0.1,0.2,0.4,0.3,0.6,0.4
		c0.3,0.2,1.2-0.2,1.5-0.3c0.4-0.1,0.9,0,1.4,0.1c-0.6-0.7-1-1-1.8-1.4c-0.3-0.1-0.6,0.1-0.9,0c-0.3-0.1-0.7-0.2-1-0.4
		c-0.5,0.1-0.6,0.8-0.1,1.1C90.4,68.8,90,68.9,90.3,69.2L90.3,69.2z M80.9,60.5L80.9,60.5c-0.3,0.3,0.3,0.5,0.5,0.6
		c0.3,0.2,0.6,0,0.9-0.1C82.2,60.4,81.3,60.1,80.9,60.5L80.9,60.5z M81.5,62c0.2-0.2,0.9,0,0.5,0.3c0,0.1,0.1,0.2,0.1,0.3
		C81.9,62.7,81.2,62.2,81.5,62L81.5,62L81.5,62z M284.4,66L284.4,66c1,0,1.7,0,2.6-0.3c0.1,0,0.1-0.6,0.1-0.6
		c-0.1-0.1-0.6-0.2-0.7-0.2c-0.5-0.2-0.7-0.1-1.2,0.1c0-0.1,0-0.2,0-0.4c-0.4,0-0.9-0.1-1.3,0.2c0-0.9-1.1-0.3-1,0.2
		C283,65.3,284.1,65.9,284.4,66L284.4,66z M203.1,72.1L203.1,72.1c0.5,0.6,1.2,1,1.9,1c0.7,0,2,0.5,2.6,0c-0.9-0.6-1.7-1.2-1.7-2.5
		c0-1,0.9-1.9,1.5-2.5c0.3-0.4,0.7-0.8,1-1.3c0.3-0.4,1-0.6,1.4-0.9c0.7-0.5,1.3-1.1,2.1-1.3c1-0.3,2-0.6,3-0.9
		c0.5-0.2,2.5-0.5,2.6-1.4c0.1-1.1-2-0.6-2.3-0.3c-0.8,0.7-1.8,0.8-2.8,1.1c-0.9,0-1.5,0.1-2.4,0.4c-0.7,0.3-1.7,0.5-2.3,1
		c-0.6,0.6-1.2,1.1-1.8,1.7c-0.4,0.4-0.8,0.9-1.2,1.3c-0.3,0.3-0.1,0.6,0,1c0,0.2-0.8,0.7-1,0.8c-0.5,0.4,0,0.4-0.3,0.9
		c-0.2,0.4-0.8,0.2-0.8,0.7C202.5,71.6,202.6,71.6,203.1,72.1L203.1,72.1z M204.9,54.7L204.9,54.7c-0.9-0.3-1-0.3-1.8,0.4
		c0.4,0.1,0.8,0.1,1.1,0.1C204.5,55,204.7,54.9,204.9,54.7L204.9,54.7z M208.5,52.5L208.5,52.5c-0.2-0.2-0.4-0.4-0.7-0.6
		c0.5-0.1,0.9-0.2,1.4-0.3c-0.8-0.1-1-0.3-1.7,0.2c-0.5,0.4-1,0.7-1.5,1c0.5,0.1,0.9,0.1,1.4,0.2C207.7,52.8,208.1,52.6,208.5,52.5
		L208.5,52.5z M208.4,73.8c0.2-0.1,0.3-0.2,0.5-0.3c0.2,0.1,1.5,0.9,1.1,1.2C209.6,75.1,208.6,74.2,208.4,73.8L208.4,73.8
		L208.4,73.8z M209.6,55.4L209.6,55.4c-0.2-0.4-0.6-0.1-0.9-0.1c0.1,0.1,0.3,0.2,0.4,0.3C209.3,55.6,209.5,55.5,209.6,55.4
		L209.6,55.4z M208,53.5L208,53.5c-0.6-0.2-1.1-0.4-1.7-0.4c-0.8,0-1.1-0.1-1.7,0.6c0.6,0.1,1.1,0.3,1.7,0.4
		C206.9,54,207.4,54,208,53.5L208,53.5z M199.6,54L199.6,54c-0.4,0.3-0.8,0.5-1.2,0.8c0.7,0.3,1.2,0.3,2,0.3
		c-0.1-0.2-0.1-0.4-0.2-0.7c0.8-0.2,1.6-0.4,2.4-0.6c-0.4-0.3-0.7-0.6-1.3-0.4c-0.5,0.1-1,0.4-1.5,0.2c-1.1-0.3-1.8,0.1-2.9,0.4
		c0.4,0.1,0.7,0.2,1.1,0.3C198.6,54.3,199.1,54.1,199.6,54L199.6,54z M200.1,76.3L200.1,76.3c0.3,0.3,1.1-0.5,1.3-0.6
		c-0.4-0.4-0.6-0.4-1.1-0.5C199.7,75.4,199.5,75.8,200.1,76.3L200.1,76.3z M177,74.1L177,74.1c0.8-0.1,1.3-0.4,1.9-1
		c-0.4,0-0.4,0.3-0.7,0.5c-0.2,0.1-0.7,0.1-1,0.1C177.4,73.9,177.2,74,177,74.1L177,74.1z M63.2,58.9c-0.3-0.2-0.7,0.1-0.9,0.1
		c-0.1,0-0.1-0.1-0.2-0.1c0.3-0.5,1.3-0.6,1.8-0.7c0.3-0.1,1.5-0.1,1.6,0.4c0.2,0.8-1.3,0.2-1.6,0.2C63.6,58.8,63.6,59.1,63.2,58.9
		L63.2,58.9L63.2,58.9z M208.4,54.3c0.2,0.1,0.4,0.2,0.6,0.3c-0.3,0-0.5,0.1-0.8,0.1c0.1,0.1,0.1,0.2,0.2,0.3c-0.5,0.1-2,0.6-2.2,0
		C206,54.4,208.2,54.4,208.4,54.3L208.4,54.3L208.4,54.3z M275.9,65.6L275.9,65.6c0.3,0.2,0.6,0.5,1,0.5c0.6-0.1,0.6-0.1,0.8-0.7
		c0.5,0.7,1.1,0.1,1.8-0.1c0.2-0.1,0.4,0.6,0.6,0.5c0.3-0.1,0.6-0.1,1-0.2c-0.1-0.2-0.2-0.4-0.3-0.6c0.4,0.2,0.6,0.3,0.9,0.1
		c0.3-0.2,0.6-0.3,0.8-0.6c-0.9-0.3-1.7-0.7-2.6-1c-0.2-0.1-0.6-0.4-0.9-0.2c-0.4,0.2-0.2,0.5-0.1,1c-0.6-0.3-1.9-1.4-2.5-1
		c-0.6,0.4-0.9,0.6-1,1.3C275.2,65,275.7,65.3,275.9,65.6L275.9,65.6z M153.2,95.6L153.2,95.6c0.2-0.1,0.3-0.2,0.1-0.5
		c-0.1,0-0.2,0.1-0.3,0.2C153.3,95.4,153.1,95.5,153.2,95.6L153.2,95.6z M279.3,68.4L279.3,68.4c0.6,0.5,1,0.4,1.7,0.3
		c-0.2-0.7-0.2-0.7-0.7-1c-0.1-0.1-1-0.5-1-0.5c-0.1-0.5-0.4-0.9-0.9-0.5c-0.6,0.4,0.1,0.8,0.4,1c-0.3,0.2-0.7,0.5-1,0.7
		C278,68.4,278.9,68.1,279.3,68.4L279.3,68.4z M214,53.6L214,53.6c0.5-0.1,0.4-0.3,0.3-0.9c-0.2,0-0.7-0.1-0.8,0.1
		c-0.2,0.1-0.2,0.5-0.3,0.6c-0.4,0.2-0.9-0.4-1.2,0.3c0.1,0.1,0.2,0.3,0.4,0.4C212.9,53.8,213.4,53.7,214,53.6L214,53.6z
		 M209.4,54.4L209.4,54.4c0.3,0,0.5-0.1,0.7,0.2c0.3,0.4,1.2-0.2,1.5-0.5c0.4-0.4-0.4-1-0.8-0.9c-0.7,0.2-1.2,0.4-1.8,0.7
		C209.1,54.1,209.1,54.4,209.4,54.4L209.4,54.4z M243.2,59.4L243.2,59.4c0.5,0.6,1.6-0.2,2.2-0.4c0.2-0.1,0.5,0.3,0.7,0.3
		c0.5-0.1,1-0.2,1.5-0.3c0.4-0.1,0.5-0.2,0.8-0.4c0.2-0.2-0.2-0.7-0.4-0.8c-0.5,0-0.6-0.3-0.9-0.6c-0.1-0.2-0.8,0-1,0
		c0.1-0.1,0.3-0.3,0.4-0.4c-0.7-0.3-1.2-0.2-1.7,0.3c-0.5,0.5-0.9,1.2-1.2,1.8C243.5,59.1,243.4,59.3,243.2,59.4L243.2,59.4z
		 M236.8,56.2c-0.1-0.1-0.8-0.5-0.7-0.6c0.1-0.2,0.3-0.9,0.5-1c0.2-0.1,0.9-0.1,1-0.3c0.1-0.6,0.1-0.7,0.6-0.9
		c0.4-0.1,0.9-0.3,1.3-0.4c0.4-0.1,0-0.5,0.6-0.5c0.6,0,1.4,1,1.9,1.3c-0.7,0.2-0.7,0.1-0.6,1c0.1,0.4,0.9,0.4,1.2,0.4
		c-0.2,0.2-0.5,0.5-0.7,0.7c0.7-0.3,1.1-0.6,1.7-0.2c0.3,0.2,0,0.6-0.1,0.9c-0.1,0.2,0.2,0.7,0.2,1c-0.7,0.2-1,0.4-1.7,0.1
		c-0.8-0.3-1.2-0.3-2-0.2c-0.7,0.1-0.9-0.7-1.4-1.2C238.2,55.8,237.3,56.1,236.8,56.2L236.8,56.2L236.8,56.2z M311.9,72.9
		L311.9,72.9c0.2-0.1,0.4,0.1,0.6,0.1c0.7-0.1,1.3-0.1,1.8-0.7c-0.3-0.3-0.5-0.6-0.9-0.6c-0.5,0-1,0-1.6-0.1c-0.4,0-0.9,0.4-1.2,0.5
		c-0.1,0,0.2,1,0.2,1.1C311.2,73.1,311.5,73,311.9,72.9L311.9,72.9z M172.4,75.5L172.4,75.5c-0.3,0.1-0.7,0.2-0.6,0.6
		c0.2-0.1,0.3-0.3,0.5-0.4C172.3,75.7,172.4,75.6,172.4,75.5L172.4,75.5z M170.2,77.4L170.2,77.4c0.2,0.1,0.4-0.1,0.5-0.3
		c-0.1-0.2-0.3-0.1-0.5,0C170.2,77.3,170.2,77.4,170.2,77.4L170.2,77.4z M171.4,75.9c0.3,0.3,0.4,0.5,0,0.7c-0.2,0-0.4-0.1-0.5-0.1
		C171,76.3,171.2,76.1,171.4,75.9L171.4,75.9L171.4,75.9z M155.9,91.2L155.9,91.2c0.2,0.1,0.2,0,0.4-0.1c-0.1,0-0.2-0.1-0.4,0
		c0,0,0.1-0.1,0.1-0.1c-0.3-0.2-0.3,0.1-0.4,0.2c0,0.1,0.1,0.1,0.1,0.2C155.8,91.3,155.8,91.2,155.9,91.2L155.9,91.2z M178.1,73.5
		c-0.4,0-0.7,0.2-0.9-0.4c0.3-0.1,0.5,0,0.7,0c0.3,0.1,0.3-0.1,0.6-0.2C178.5,73.2,178.3,73.3,178.1,73.5L178.1,73.5L178.1,73.5z
		 M153.5,95.3c-0.1-0.3,0-0.4,0.2-0.4C153.7,95.1,153.6,95.2,153.5,95.3L153.5,95.3L153.5,95.3z M171.5,76.8L171.5,76.8
		c-0.4,0-0.7-0.1-0.7,0.5C171,77.1,171.3,77,171.5,76.8L171.5,76.8z M154,95.4L154,95.4c0,0.1,0.1,0.3,0.2,0.4
		C154.3,95.6,154.2,95.5,154,95.4L154,95.4z M153.8,93.2L153.8,93.2c0,0-0.1,0-0.1,0.1c0.1,0,0.1,0,0.2,0.1
		c-0.2,0.2-0.2,0.4-0.3,0.6c0,0.1-0.3,0.2-0.4,0.4c0.4,0.1,0.4,0.2,0,0.3c0.2,0.2,0.8,0,0.3-0.3c0.3,0.2,0.5-0.1,0.7-0.3
		c0,0,0.1,0.1,0.1,0.1c-0.3,0.2-0.4,0.6-0.5,1c-0.1,0.3,0.1,0.3,0,0.6c-0.1,0.2-0.2,0.2-0.1,0.4c0.3,0.2,0.2-0.3,0.2-0.5
		c0-0.3,0-0.6,0.4-0.8c-0.4,0.3-0.1,0.7,0.2,0.1c0,0.1,0.1,0.2,0.1,0.3c-0.2,0-0.2,0.1-0.1,0.3c0.1,0.3,0.1,0.2,0,0.6
		c-0.1,0.4-0.5,0.4-0.1,0.8c0-0.1,0-0.2,0-0.3c0.2,0.1,0.5,0.3,0.4,0c0.3,0.2,0.7-0.2,1.2-0.1c-0.8,0.2-0.4,1.4,0.1,1
		c-0.2,0.3-0.2,0.9,0.1,1.1l-0.1,0c-0.1-0.2-0.1-0.1-0.2-0.2c0,0.1,0,0.1,0.1,0.2c-0.3-0.1-0.5-0.2-0.8,0c-0.1-0.2-0.3-0.3-0.5-0.2
		c0.3,0.3,0.2,0.5-0.1,0.7c0.2,0,0.4-0.1,0.6-0.1c-0.1,0.4,0.2,0.5-0.1,0.9c-0.1,0.2-0.7,0.3-0.9,0.4c0,0.1,0.1,0.3,0,0.2
		c0.3,0.4,0.6-0.1,1,0.1c0,0-0.1,0.1-0.1,0.1c0.2,0,0.6,0.2,0.6,0.2c0.3-0.1,0.6-0.2,0.8-0.3c-0.2,0.2-0.3,0.4-0.4,0.6
		c-0.5-0.1-1.1-0.3-1.3,0.4c-0.1,0.4-0.7,0.7-0.9,1c0.5,0.3,1-0.6,1.6-0.2c0.4-0.9,0.5-0.2,1.2-0.5c0.2-0.1,0.6-0.4,0.8-0.4
		c0.3,0,0.4,0.3,0.7,0.3c0.6-0.1,0.9-0.1,1.5-0.4c0.7-0.3-0.4-0.5-0.6-0.6c0.6-0.4,1-0.6,1-1.4c0.1-0.8-1.2-0.3-1.4-0.4
		c0.5-0.4-0.3-1-0.6-1c0.2-0.1,0.5,0,0.6,0.2c-0.2-1-1-1.1-1.3-1.9c-0.3-1-0.8-1.1-1.7-1.3c0.2-0.2,0.4-0.3,0.6-0.3
		c-0.3-0.6,1.1-1.3,0.7-1.9c-0.2-0.3-1.8-0.2-2,0.2l-0.1-0.1c0.1-0.1,0.2-0.3,0.3-0.4c-0.1,0-0.3-0.1-0.4-0.1c0.1,0,0.2,0,0.3,0
		c0.1-0.4,0.8-0.5,0.9-1c-0.4-0.1-0.9,0-1.2,0.2c-0.2-0.1,0-0.1-0.3,0c-0.1-0.4-0.4-0.1-0.3,0.3c-0.1,0-0.2,0-0.3,0
		c0,0.1-0.1,0.2-0.1,0.2c0.1,0.1,0.2,0.3,0.3,0.3c-0.2-0.1-0.4-0.1-0.6-0.1c0.1,0.1,0.1,0.3,0.2,0.5c-0.1,0-0.2,0-0.2,0
		C153.6,93.2,153.7,93.2,153.8,93.2L153.8,93.2z M154.9,97.1c0.1,0.2,0,0.3-0.2,0.5c-0.1,0-0.1,0-0.2,0
		C154.6,97.4,154.7,97.2,154.9,97.1L154.9,97.1L154.9,97.1z M172.9,76.5L172.9,76.5c0.3-0.3,0.6-0.7,1-1c-0.2,0.2-0.5,0.4-0.7,0.6
		C172.9,76,172.8,76.2,172.9,76.5L172.9,76.5z M174.6,74.5L174.6,74.5c-0.2,0.2-0.3,0.3-0.6,0.5c0.2,0,0.4,0,0.6,0
		C174.7,74.8,175,74.6,174.6,74.5L174.6,74.5z M173.4,75.1c0.3-0.1,0.5-0.2,0.6,0.1c-0.2,0.2-1.1,1.1-1.1,0.4
		C173,75.2,173,75.2,173.4,75.1L173.4,75.1L173.4,75.1z M175.4,74.3c-0.1,0.2-0.2,0.3-0.4,0.3c-0.1,0-0.2-0.1-0.3-0.1
		C174.8,74.1,175.1,74.1,175.4,74.3L175.4,74.3L175.4,74.3z M172.5,76.1c0.3-0.2,0.3,0.3,0.3,0.5c-0.3-0.1-0.4,0-0.6,0.2
		c-0.2,0.3-0.3,0.2-0.7,0.1c0.2-0.2,0.2-0.1,0.2-0.4c0.1,0,0.2,0,0.2,0c-0.1-0.3,0-0.5,0.3-0.5c0,0.2-0.1,0.4-0.1,0.6
		C172.4,76.5,172.3,76.2,172.5,76.1L172.5,76.1L172.5,76.1z M171.7,77.4L171.7,77.4c0,0.4-0.2,0.5-0.5,0.5c0.1,0.1,0.1,0.1,0.2,0.2
		c-0.1,0.1-0.1,0.2-0.2,0.3C171.5,78,171.8,77.9,171.7,77.4L171.7,77.4z M172.1,77.2L172.1,77.2c-0.1,0-0.2,0-0.3,0
		c0,0.1,0,0.3,0,0.4c0.3-0.3,0.5-0.6,0.8-0.8C172.3,76.8,172.2,76.9,172.1,77.2L172.1,77.2z M176,74.4c-0.2,0.1-0.5,0.2-0.7,0.3
		c-0.2,0.1-0.3,0.1-0.5,0.2C175,74.6,175.6,74.2,176,74.4L176,74.4L176,74.4z M176.3,73.9L176.3,73.9c-0.1,0-0.3,0-0.4,0
		c0,0.1,0.1,0.2,0.1,0.3C176.3,74.4,176.4,74.3,176.3,73.9L176.3,73.9z M218.6,68.2L218.6,68.2c-0.5,0.1-0.4,0.3-0.5,0.9
		c0.5-0.1,1-0.2,1.4-0.3C219.4,68.3,219,68.2,218.6,68.2L218.6,68.2z M269,121.6L269,121.6c0,0.2,0.1,0.4,0.1,0.7
		c0.5,0.1,0.1-0.6,0.5-0.5c0.5,0.1,0.2,0.7,0.1,0.9c-0.3,0.4-0.3,1.7,0.4,1.2c0.5-0.4,0.7-1.1,1-1.8c0.1-0.2-0.2-0.6-0.3-0.7
		c-0.2-0.3-0.4,0-0.6-0.3c0.4-0.4,0.9,0.2,1.1-0.6c0.2,0.4,0.4,0.2,0.7,0.1c0.1-0.1,0.6-0.2,0.7-0.3c0.3-0.4,0.9-0.1,1.3-0.1
		c-0.6,0.5-0.2,0.9,0.2,1.3c0.3-0.4,0.5-1,1-0.9c-0.3-0.3-0.4-0.5,0-0.8c0.4,0.7,1.2,0.4,1.6-0.2c0.1,0.2,0.2,0.4,0.3,0.5
		c0.2-0.3,0.4-0.7,0.7-0.9c0,0.2-0.1,0.4-0.1,0.6c0.4-0.1,0.5-0.5,0.8-0.7c0,0-0.1-0.9,0-1.1c0.1-0.5,0.3-0.5,0.3-1.1
		c0-0.4-0.1-1,0.4-0.7c0-0.4-0.1-0.6,0.2-0.8c0.3-0.2,0.2-0.6,0.2-1c0-0.3-0.3-0.7-0.4-0.9c-0.1-0.3,0-0.5,0.1-0.8
		c-0.4-0.2-0.7,0.1-0.6,0.6c-0.3-1-0.9,0.3-1,0.7c-0.1,0.3,0.3,0.5,0.2,0.6c-0.1,0.4-0.3,0.8-0.4,1.3c-0.2,0.5-0.5,1.1-1,1.4
		c-0.3,0.2-0.6,0.3-0.9,0.3c-0.3,0,0.1-0.6,0.2-0.6c-0.4,0.2-0.6,0.1-0.6,0.6c0,0.3-0.4,0.6-0.6,0.8c-0.2,0.3,0.1,0.5-0.2,0.6
		c-0.5,0.2-0.3-0.2-0.6-0.2c-0.6,0.1-1.6-0.1-2,0.4c-0.4,0.6-0.9,1-1.6,1C270.4,121,269.4,121.3,269,121.6L269,121.6z M268.1,151.5
		L268.1,151.5c-0.2,0.2-0.6,0.5-0.8,0.8c-0.3,0.5-0.1,0.5,0,0.9c0.1,0.3,0.1,0.7,0.1,1c0,0.2,0.5,0.5,0.6,0.6
		c-0.1-0.4-0.2-1.3,0.5-1.1c-0.1-0.1-0.8-0.6-0.5-0.7c0.4-0.1,0.5-0.6,0-0.7c0.1-0.1,0.1-0.3,0.2-0.4
		C268.2,151.9,268.2,151.7,268.1,151.5L268.1,151.5z M287.2,176.7L287.2,176.7c-0.5-0.5,0.2-1.1-0.6-1.3c-0.1,0-0.5,0.5-0.6,0.2
		c-0.1-0.4-0.2-0.7-0.3-1.1c-0.2-0.7-0.2-1.1-0.8-1.4c-0.2-0.1-1.8-0.8-1.8-1.1c0-0.6,0.2-1.4-0.2-1.8c-0.6-0.7-0.5-0.9-0.6-1.9
		c0-0.6-0.8-0.9-1.2-0.6c-0.2-1.3-0.6-2.4-1.1-3.6c-0.6,0.2-0.7,1.3-0.8,1.9c-0.2,0.6,0,1.4,0,2c0,0.8-0.4,3.2-1.5,2.8
		c-0.4-0.1-0.7-0.8-1.1-1c-0.7-0.4-1.4-0.8-2.1-1.3c-0.7-0.4-0.4-0.6-0.2-1.4c0.1-0.6,0.5-1,0.9-1.5c-0.7-0.7-0.8-0.7-1.7-0.8
		c-0.7-0.1-1.4-0.2-2.1-0.2c0,0.3,0,0.6,0.1,1c-0.8-0.1-1.5-0.5-1.9,0.2c-0.5,0.7-0.6,1.4-0.8,2.2c-0.7-0.4-1.3-0.7-2-1.1
		c-0.2-0.1-1.1,0.8-1.2,1c-1.1,0.9-2.5,1.7-3.1,3.1c-0.3,0.7-0.3,1.3-1,1.5c-0.9,0.2-1.8,0.4-2.7,0.6c-0.6,0.1-1,0.4-1.5,0.8
		c-0.7,0.5-0.8,0.7-1.1,1.5c-0.1-0.3-0.2-0.6-0.3-0.8c-0.5,1.1-0.7,2.1-0.3,3.2c0.3,0.7,0.2,0.8,0,1.5c-0.2,0.5,0.2,0.9,0.4,1.3
		c0.5,1.1,0.9,2.2,1.1,3.5c0.1,0.5,0.5,1.7,0.3,2.1c-0.1,0.2-1.1,0.7-0.6,1.1c0.4,0.3,0.9,0.9,1.4,0.9c0.5,0,1.1,0.2,1.5-0.2
		c0.6-0.6,0.7-0.8,1.5-0.9c0.5-0.1,1.1-0.1,1.6-0.2c0.4,0,0.8,0,1.2,0c0.1,0,0.3-0.6,0.4-0.7c0.2-0.4,1-0.6,1.4-0.8
		c0.5-0.2,1.1,0.1,1.5-0.1c0.3-0.2,1-0.8,1.3-0.7c1.3,0.2,2.4,0.3,3.6,0.8c0.8,0.3,0.8,0.4,1.3,1.2c0.3,0.5,0.6,1,0.9,1.4
		c0.7-0.8,1.3-1.4,1.8-2.4c0.3,1-0.3,1.7-0.8,2.5c0.8,0.2,0.8-0.3,1.1-1.1c0,0.5-0.1,1.7,0.4,1.7c0.4,0,0.8,0.9,0.8,1.3
		c0.3,1.4,1.3,1.7,2.4,1.9c0.8,0.1,0.9,0.2,1.4-0.3c0.7-0.6,0.6-0.3,1.2,0.4c0.3,0.3,1,0.1,1.2-0.2c0.6-0.6,0.7-0.7,1.5-0.7
		c1.3,0,1.2-1.9,1.4-3c0.2-1,1.3-1.7,1.5-2.7c0.3-1.2,0.9-2.6,0.9-3.8c0-1.2-0.4-2.5-0.5-3.6C288.3,177.7,287.7,177.2,287.2,176.7
		L287.2,176.7z M265.9,157.1L265.9,157.1c-0.3,0.8,1,0.4,1.1,0.4C267.1,157,266.1,156.5,265.9,157.1L265.9,157.1z M270.3,164.6
		c0.4-0.1,0.3,0.3,0.1,0.5c-0.3,0.2-0.7,0-1,0C269.4,164.3,269.9,164.9,270.3,164.6L270.3,164.6L270.3,164.6z M288.9,158.6
		L288.9,158.6c0.2-0.5,0.3-0.5,0-0.9c0-0.1-0.2,0.1-0.3-0.1c-0.1-0.1-0.1-0.3-0.2-0.3c-0.4-0.3-0.9-0.6-1.3-0.9
		c-0.2,0.5,1.8,0.8,1.6,1.8C288.7,158.3,288.8,158.4,288.9,158.6L288.9,158.6z M284.6,194.5L284.6,194.5c-0.3,0.1-1,0.6-1.3,0.5
		c-0.5-0.2-0.9-0.4-1.4-0.6c-0.1,0.7,0,1.6,0.3,2.2c0.4,0.8,0.8,1,1.5,1.2C284.6,197.9,285.5,194.8,284.6,194.5L284.6,194.5z
		 M285.9,159.2c0.3,0,0.5-0.5,0.6-0.4c-0.4,0.9,1.1-0.2,1.2-0.2c0-0.2-0.1-1.1,0.4-0.8c0.3,0.2,0.6,0.7,0,0.9
		c0.5,0.5-0.3,0.4-0.3,0.6c-0.2,0.4-0.7,0.6-1,0.6c-0.5,0.1-1.5-0.2-1.8-0.7C285.2,159.1,285.6,159.2,285.9,159.2L285.9,159.2
		L285.9,159.2z M282.8,159.1c0.4,0.5,1.8,0.1,1.7,1.2c-0.3,0-0.5,0.1-0.8,0.1c0.1,0.2,0.1,0.6,0.3,0.7c0.2,0.1,0.5,0.2,0.6,0.4
		c0.4,0.8,0.3,1,1.1,1c-0.2,0.5,0.2,0.4,0.6,0.5c-0.3,0.3,0.4,0.8,0.6,1c-0.3,0.1-0.8-0.3-1.2-0.4c-0.5-0.1-1,0-1.4-0.4
		c-0.5-0.5-1-1-1.4-1.5c-0.2-0.3-1.3-0.2-1.6-0.3c-0.3,0-0.4,0.9-0.7,1.1c-0.6,0.4-1.1,0.2-1.8,0.2c-0.4,0-0.6-1-0.9-0.9
		c-0.6,0.1-1.2,0.1-1.8,0.2c0.1-0.9,0.2-0.8,1-1c-0.2-0.5-0.4-1.1-0.7-1.6c-0.1-0.3-0.8-0.4-1.1-0.6c-0.7-0.3-1.3-0.6-2-0.9
		c-0.6-0.2-0.6-0.2-0.7-0.9c-0.2,0.3-0.5,0.6-0.7,0.9c-0.3-0.5-0.5-0.9-0.8-1.4c0.6-0.2,1-0.3,1.6-0.1c0-0.1,0.1-0.3,0-0.4
		c-0.5,0-1.1,0.2-1.6-0.1c-0.2-0.1,0-0.5-0.2-0.6c-0.3,0-0.5-0.1-0.8-0.1c0.4-0.8,1.2-1,2-0.8c0.5,0.1,0.7,0,0.7,0.6
		c0.1,0.5,0.2,0.9,0.4,1.4c0.2,0.4,0.4,0.5,0.8,0.7c0.1,0.1,0.7-0.8,0.8-0.9c0.3-0.4,1.1-0.8,1.6-0.6c1,0.4,2,0.7,2.9,1.1
		c0.6,0.2,1.4,0.4,1.9,0.7c0.4,0.2,0.8,0.5,1.1,0.7C282.7,158.3,282.5,158.8,282.8,159.1L282.8,159.1L282.8,159.1z M279.7,101.6
		L279.7,101.6c0,0.6,0.1,1.2-0.2,1.7c-0.3,0.7-0.1,0.7,0.1,1.4c0.1,0.4,0.1,0.5-0.2,0.8c-0.1,0.2,0.1,0.5,0.1,0.7
		c0,0.7-0.1,0.8,0.2,1.5c0.1-0.4,0.1-0.9,0.5-1c0.4-0.1,0.7,0.5,0.6,0.8c0.4-0.4-0.1-1.1-0.3-1.5c-0.3-0.5-0.5-0.6-0.3-1.2
		c0.3-0.8,0.2-1,0.9-1.2c0.5-0.1,0.4,0.8,0.9,0.8c-0.4-0.7-0.6-1.3-0.8-2.2c-0.1-0.4-0.2-0.8-0.3-1.1c-0.1-0.3-0.4-0.5-0.4-0.7
		c-0.1-0.8,0.5-1.2,0.1-2.1c-0.2-0.4,0-1.6-0.7-1c0.3,0.3,0.5,0.8,0.2,1.1c-0.1,0.1-0.2-0.1-0.4,0.1c-0.3,0.2-0.2,0.2-0.1,0.6
		c0.1,0.4-0.1,1.1-0.2,1.5C279.2,100.9,280.1,101.1,279.7,101.6L279.7,101.6z M264.3,145L264.3,145c0.4,0.1,0.7-0.5,0.1-0.6
		C264.3,144.6,263.8,144.9,264.3,145L264.3,145z M263.7,145.2c-0.1-0.6,0.4-1.2,0.5-1.8c0,0,0.1,0,0.1-0.1c-0.1,0.2,0,0.7-0.1,0.9
		C263.9,144.5,263.7,144.7,263.7,145.2L263.7,145.2L263.7,145.2z M265.1,143.3c0,0.5,0.4,0.9,0.2,1.3c0-0.1-0.1-0.2-0.2-0.4
		c0,0.1,0,0.3,0,0.4c-0.4-0.2-0.1-1.1-0.5-0.8c-0.1-0.2-0.1-0.4-0.1-0.7C264.6,143.3,264.9,143.4,265.1,143.3L265.1,143.3
		L265.1,143.3z M263.8,142.5L263.8,142.5c0.1,0.2,0.3,0.4,0.5,0.5c0-0.1,0-0.4,0-0.5c-0.3,0-0.3-0.4-0.7-0.4
		c0.1,0.2,0.1,0.5-0.1,0.7C263.5,142.7,263.7,142.6,263.8,142.5L263.8,142.5z M264.4,142.2L264.4,142.2c0,0.3,0.3,0.4,0.5,0.6
		c0.3,0.2,0,0.2,0.1,0.5c0.6,0.8,0.5-0.3,0.4-0.7C265.4,142,264.9,142.2,264.4,142.2L264.4,142.2z M262.4,142.9c0.1,0,0.3-0.1,0.4,0
		c0.6,0.2,0.7,0.3,1,0.8c0.1,0.2-0.3,0.9-0.3,1.2c0,0.2,0.1,0.6-0.1,0.6c-0.3,0-0.2-0.2-0.4-0.3c-0.5-0.2,0-0.8,0.3-1.1
		C262.4,144.5,262.5,143.9,262.4,142.9L262.4,142.9L262.4,142.9z M260.2,155.2L260.2,155.2c-0.1,0.4,0,0.6-0.2,1
		c-0.2,0.5-0.4,0.6-0.1,1.1c0.2,0.3,0.6-0.1,0.5,0.5c0,0.3-0.3,1.3-0.2,1.4c0.1,0.2,0.8,0.3,0.9,0.1c0.1-0.1-0.1-0.4-0.1-0.6
		c0-0.2,0.2-0.3,0.2-0.5c0-0.3,0-0.7,0-1.1c0-0.4-0.4-0.6,0.2-0.7c0.4,0,0.1,0.7,0.1,0.8c0.1,0.4,0.6,0.3,0.5,0.8
		c-0.1,0.4,0.2,0.5,0.5,0.4c-0.2,0,0.7-0.7,0.6-0.4c0.2-0.6-0.3-0.3-0.5-0.7c0-0.1,0.2-0.3,0.2-0.5c-0.1-0.2-0.2-0.4-0.3-0.6
		c-0.2-0.3-0.3-0.3-0.6-0.6c0.8,0.3,1.1-1.3,1.7-0.8c0.2-0.7-0.4-0.3-0.7-0.3c-0.3,0-0.3,0.1-0.6,0.2c-0.3,0.1-0.1-0.3-0.4,0
		c-0.7,0.8-1.5-0.6-1-1.3c0.3-0.3,0.6,0.1,1,0c0.4,0,1-0.2,1.4,0c1,0.6,1.5-0.5,1.8-1.3c-0.4,0-0.7,0.6-1.1,0.9
		c-0.2,0.1-0.5-0.1-0.7-0.1c-0.3,0-0.2,0.2-0.5,0.1c-0.4-0.1-1.1-0.6-1.5-0.3c-0.5,0.3-0.6,0.6-0.9,1.2
		C260.9,154.5,260.4,154.8,260.2,155.2L260.2,155.2z M261.1,141.3L261.1,141.3c0.2,0.4,0.5,0.8,0.7,1.3c0.5-0.6,0.4-0.9-0.1-1.3
		C261.5,141.3,261.3,141.3,261.1,141.3L261.1,141.3z M256.3,161.7L256.3,161.7c0,0.5,0.3,0.9,0.7,0.4
		C257.4,161.6,256.6,161.5,256.3,161.7L256.3,161.7z M278.2,110.4c0.3,0.1,0.5,0.1,0.8,0.2c0.1-0.2,0.1-0.4,0.1-0.7
		c0-0.3,0.4-0.5,0.3-0.8c-0.1-0.2-0.3-1.7,0.2-1.1c0.4,0.5,0.7,1.1,1.3,1.4c0.8,0.4,0.8,0.6,1.5-0.1c0.1,0.4-0.6,1.2,0.4,1.2
		c-0.4,0.4-0.8,0.5-1.3,0.5c-0.2,0-0.5,0.2-0.6,0.4c-0.1,0.1-0.2,0.7-0.2,0.7c-0.3,0.1-1-0.4-1.2-0.7c-0.1-0.1-0.5,0.1-0.7,0.2
		c-0.1,0.1-0.4-0.2-0.7-0.1c-0.1,0.5,0.5,0.3,0.6,0.6c0.1,0.3-0.2,0.2-0.3,0.2c-0.2,0-0.3,0.4-0.5,0.3c-0.1,0-0.4-1-0.4-1.1
		c0.1-0.3,0.1-0.3,0.4-0.5C278.2,111,278.2,110.6,278.2,110.4L278.2,110.4L278.2,110.4z M166.9,95.7L166.9,95.7
		c0,0.2,0.4,0.7,0.6,0.7c0.3-0.1,0.3-0.5,0-0.6C167.5,95.5,167.2,95.6,166.9,95.7L166.9,95.7z M188.1,119L188.1,119
		c-0.3,0.1-0.7,0.4-1,0.4c-0.2,0-0.8-0.2-1,0.1c-0.4,0.9,1.3,0.4,1.5,0.3C187.4,119.4,187.8,119.2,188.1,119L188.1,119z M181,119.7
		L181,119.7c0-0.3-0.6-0.4-0.9-0.4c-0.6,0.1-0.7,0-1.2-0.3c-0.1,0.1-0.2,0.3-0.2,0.4C179.5,119.7,180.1,119.7,181,119.7L181,119.7z
		 M168.1,95.6L168.1,95.6c-0.1,0.2,0,0.7,0.3,0.6c0.4,0,0.3,0.3,0.4,0.6c0.1-0.4,0-0.8,0.5-0.9c-0.1-0.1-0.2-0.2-0.3-0.3
		c1.2-0.2-0.7-1.3-0.2-0.2c-0.2,0-0.3-0.1-0.2-0.4c-0.1,0-0.2,0-0.3,0C168.3,95.3,168.3,95.5,168.1,95.6L168.1,95.6z M178.5,91.7
		L178.5,91.7c-0.6-0.2-0.8-0.1-1.4,0c0.2,0.2,0.4,0.4,0.2,0.8C177.6,92.1,178.1,92,178.5,91.7L178.5,91.7z M165.9,113.9L165.9,113.9
		c0,0.1-0.2,0.4-0.2,0.5c0,0.1,0.2,0.2,0.2,0.3c-0.1,0.4-0.4,0.4-0.1,0.7c0.3,0.2,0.5,0.3,0.6-0.1c0-0.2,0.4,0,0.4-0.4
		c0.1-0.4,0.1-0.9,0.2-1.3c0.1-0.9-0.9-0.4-1.1-0.2c-0.1,0-0.2-0.1-0.3-0.1C165.4,113.8,165.8,113.6,165.9,113.9L165.9,113.9z
		 M319.9,84.2L319.9,84.2c-0.2,0-0.9-0.2-1.1-0.1c-0.2,0.2,0,0.6,0.1,0.7c0.5,0.4,1.1-0.2,1.4,0.2c0.4,0.5,0.9,0.6,1.2-0.1
		C321.1,84.7,320.5,84.3,319.9,84.2L319.9,84.2z M174,93.8L174,93.8c0.2-0.3,0.4-0.5,0.7-0.6c-0.3-0.3,0-0.5,0.2-0.8
		C174,92.3,174,93.2,174,93.8L174,93.8z M175.8,89.6L175.8,89.6c0-0.1,0-0.2,0-0.3c0,0,0.1,0,0.1,0C175.8,88.8,175,89.2,175.8,89.6
		L175.8,89.6z M165.9,111.9L165.9,111.9c-0.3,0.3,0.3,0.8,0.5,0.8c0.2-0.7,0.3-1,0.2-1.7c-0.2,0.1,0,0.3-0.2,0.4
		C166.3,111.6,166,111.7,165.9,111.9L165.9,111.9z M290.9,159.6L290.9,159.6c-0.2-0.1-0.2-0.5-0.5-0.6c0,0.3,0,0.5,0.2,0.7
		c0.1,0.2,0.1,0.4,0.2,0.5c0.2,0.2,1,0.5,0.7-0.1C291.3,159.9,291.1,159.7,290.9,159.6L290.9,159.6z M272.5,121.4
		c-0.4,0.2-0.5,1-1,0.7c-0.2-0.8,0-0.7,0.3-1.3c0.2,0.2,1.6-0.7,1.5,0.3c0,0.1-0.3,0.5-0.4,0.6C272.8,121.7,272.7,121.3,272.5,121.4
		L272.5,121.4L272.5,121.4z M267.5,157L267.5,157c-0.4,0.5,0.4,0.5,0.6,0.5c0.2,0,0.1-0.4,0.2-0.3c0.2,0.1,0.4,0.2,0.6,0.2
		c0.5-0.1,0.7,0.1,1.1,0.4c0.2-0.9-0.8-1-1.3-1.1C268.3,156.6,267.8,156.6,267.5,157L267.5,157z M306.1,195.2L306.1,195.2
		c0-0.4-0.1-0.6-0.3-1c-0.4,0.2-0.6,0.2-0.7,0.7c-0.1,0.5-0.3,0.3-0.5,0.6c-0.2,0.3-0.1,0.7-0.3,1c-0.2,0.3-0.6,0.5-0.8,0.7
		c-0.3,0.2-0.5,0.5-0.8,0.6c-0.2,0.1-0.7,0.2-0.9,0.4c-0.5,0.6-1,1.3-1.4,1.9c-0.5,0.7,0.9,0.5,1.1,0.7c0.3,0.3,1.3,0.7,1.6,0.2
		c0.3-0.5,0.9-1.2,1.1-1.8c0.2-0.9,0.5-1,1.2-1.5c0.1,0.2,0.2,0.3,0.4,0.4c-0.3-0.5-0.3-0.6,0.1-1c0.4-0.5,0.7-0.9,1.1-1.4
		c-0.1-0.3-0.2-0.7-0.3-1C306.6,194.9,306.3,195,306.1,195.2L306.1,195.2z M301.6,201.3c0.8,0.6,0,0.4-0.3,0.7
		C301.5,201.7,301.4,201.4,301.6,201.3L301.6,201.3L301.6,201.3z M310.3,191c0.7,0.1,0.1,1.1-0.2,1.4c-0.1,0.1,0.1,0.5-0.1,0.3
		c-0.2-0.1-0.7-0.1-0.7,0.3c0,0.6-0.5,1.3-0.8,1.9c-0.3,0.7-0.8,0.4-1.3,0.2c0.2-0.3,0.8-0.9,0.6-1.3c-0.1-0.1-0.5-0.2-0.7-0.2
		c-0.2-0.1-0.4-0.4-0.6-0.5c0.5-0.4,0.6-0.5,0.8-1.2c0.2-0.4-0.2-0.9,0-1.4c-0.4,0.1-0.9-1.3-1-1.7c-0.1,0.1-0.1,0.1-0.2,0.2
		c-0.2-0.4-0.4-0.8-0.5-1.1c0.3,0.1,0.5,0.4,0.9,0.6c0.7,0.3,0.3,0.2,0.6,0.9c0.1,0.2,0.2,0.4,0.3,0.5c0.1,0.2,0,0.5,0,0.6
		c0.3,0.6,0.6,0.2,0.6-0.3c0.5,0.2,0.2,1.1,0.7,1.3C309.5,191.4,309.7,191.5,310.3,191L310.3,191L310.3,191z M160.7,114.7
		L160.7,114.7c0.2,0.1,0.3,0.3,0.5,0.4c0.2-0.1,0.3-0.3,0.5-0.4C161.3,114.2,161.1,114.4,160.7,114.7L160.7,114.7z M318.4,81.4
		c0.3,0.1,0.9,0.3,1.2,0.2c0.4-0.1,0.8-0.6,1.1-0.9c-0.5-0.4-1-1.1-1.6-1.3c-0.8-0.3-1.4-0.3-2.2-0.3c0.1,0.4,0.2,0.7,0.3,1.1
		c-0.9,0-0.8-0.3-1.1-1.2c-0.3-0.8-0.4-0.8-1.1-1.3c-1.2-0.7-2.3-1.3-3.5-1.9c-1-0.5-2.1-1.3-3.3-1.4c-1.5-0.1-2.9-0.2-4.3-0.3
		c0.1,0.7,0.2,1.3,0.3,2c-0.3,0-0.9,0.2-1.2,0.1c-0.4-0.2-0.8-0.8-1.2-1.1c-0.4-0.4-0.4-0.4-0.9-0.1c-0.3,0.2-0.8,0-1.2,0
		c-1-0.2-1.7-0.1-2.7,0.1c-0.9,0.2-1.5-0.2-2.4-0.4c0.2-0.6,0.2-0.7,0-1.2c-0.2-0.5-0.4-0.5-0.9-0.6c-0.8-0.2-1.6-0.6-2.4-0.5
		c-1,0.2-2,0.3-3,0.5c-0.4,0.1-1.5-1.6-1.9-1.8c-0.7-0.4-1.8-0.5-2.6-0.7c-0.8-0.2-1.5-0.5-2.3-0.6c-1-0.1-2-0.3-3-0.4
		c-0.2,0-0.7,0.9-0.9,1.1c-0.2,0.3,0.3,0.8,0.5,1.1c-0.5,0.2-1.1,0.4-1.6,0.7c-0.3,0.1-1-0.4-1.3-0.6c-0.4-0.2-0.9,0.1-1.4,0.2
		c-0.7,0.2-0.8,0-1.4-0.4c-0.6-0.4-0.5-0.3-1,0.3c-0.2,0.2-0.8,1.4-1.1,1.2c-0.5-0.3-1-0.6-1.5-0.9c-0.2-0.1-0.2-1.4-0.2-1.6
		c0-0.3,0.4-1.3,0.2-1.5c-0.3-0.3-0.8-1.2-1.2-1.3c-0.4-0.1-1.2,0.2-1.6,0.3c-0.5,0.1-1.1,0-1.6,0c-0.8,0-0.7,0-0.8,0.8
		c-0.1,0.4-1,0.3-1.3,0.3c-0.6,0-1.1,0.1-1.7,0.1c-0.4,0-1-0.5-1.3-0.6c0.3-0.2,0.5-0.3,0.8-0.5c-1.4-0.2-2.8-0.4-4.2-0.3
		c-1.1,0.1-1.3,0.1-2.2-0.5c-0.6-0.4-1.4,0-1.9,0.4c0.4,0.1,0.8,0.1,1.3,0.2c-1.6,0.5-3.3,0.9-4.9,1.4c2.4-1.5,4.7-2.9,7.1-4.4
		c0.2-0.1,0.3-0.7,0.4-0.8c0.1-0.1-0.4-0.6-0.5-0.8c-0.4-0.5-1.2-0.8-1.7-1.2c-0.5-0.3-1.1-0.2-1.7-0.2c-0.4,0-0.8,0-1.1,0
		c-0.2,0-0.1,0.7-0.1,0.9c-0.5,0-1-0.1-1.5-0.1c0.4-0.3,0.7-0.6,1.1-1c-0.9-0.1-1.8-0.3-2.6-0.4c0.6-0.2,1.1-0.3,1.7-0.5
		c-0.5-0.8-1.8-0.8-2.5-0.4c-0.6,0.3-1.2,0.6-1.8,0.9c-0.4,0.2-0.2,1-0.6,1.1c-2,0.8-4,1-6.1,1.4c-1.1,0.2-2.4,0.2-3.4,0.6
		c-0.5,0.2-1,0.6-1.5,0.9c-0.7,0.4-0.6,0.4-0.6,1.2c0,0.4,0.2,0.9-0.3,0.9c-0.6,0.1-1.3,0.1-1.9,0.2c-1.1,0.1-2.3,0.2-3.4,0.3
		c0.1,0.4,0.1,1.9,0.5,1.9c0.3,0,1,0,1.2,0.2c0.2,0.2,0.3,0.8,0.4,1.1c-0.3,0-0.7,0.2-1,0c-0.3-0.2-0.6-0.4-0.9-0.5
		c-1-0.4-1.4-0.6-2.5-0.3c-0.3,0.1-1.8,0.7-1,1.1c0.7,0.3,1.5,0.6,2.2,0.9c-0.5,0-2.6,0-2.9-0.6c-0.4-0.7-0.5-0.7-0.1-1.5
		c0.2-0.3-0.4-1.1-0.7-1c0.1,0.2,0.4,1.1,0,1.3c-0.5,0.2-1,0.3-1.3,0.8c-0.2,0.4,0.5,1.1,0.7,1.4c0.3,0.4-0.2,1-0.4,1.4
		c-0.2,0.4,0.2,1,0.3,1.4c0,0.1,1.4-0.2,1.5-0.2c0.7-0.1,0.7-0.1,1.3,0.3c0.4,0.3,0.4,0.8,0.4,1.3c-0.3-0.4-0.7-0.8-1-1.2
		c-0.2-0.2-0.9,0.2-1.2,0.2c-1.4,0.4,0.3,1.4-0.3,2c-0.6,0.6-1.4,1.7-2.2,1.9c-1,0.3-1.8-0.2-2.5-0.8c0.3,0,1.1,0.3,1.3,0.1
		c0.6-0.3,1.1-0.7,1.7-1c0.3-0.2,0.5-1.1,0.7-1.4c0.3-0.7-0.3-0.7-0.8-1.1c-0.4-0.3,0.4-2.7,0.2-3.3c-0.1-0.3-0.7-1-0.6-1.4
		c0.2-0.6,0.5-1.2,0.7-1.9c-0.6-0.1-3.1-0.7-3.3-0.1c-0.2,0.4-0.3,1.5-0.7,1.8c-0.5,0.4-1.1,0.8-1.6,1.3c0.2,0.2,1.1,0.5,0.9,0.8
		c-0.2,0.4-0.7,1.1-0.4,1.4c0.5,0.4,1.1,0.8,1.6,1.2c0.2,0.2-0.1,1.1-0.1,1.4c-0.5-0.3-1-0.9-1.5-1.1c-0.7-0.3-1.5-0.6-2.2-0.9
		c-1.1-0.4-2.6-0.6-3.6-0.1c0.5,0.6,0.8,0.7,0.3,1.3c-0.5,0.7-0.5,0.6-1.2,0.4c0.1-0.2,0.2-0.4,0.3-0.5c-0.7-0.2-0.9-0.2-1.5,0.1
		c-0.5,0.3-0.9,0.2-1.5,0.1c-0.4,0-0.6,0.8-1.1,0.7c-0.7-0.2-0.7-0.2-0.9-0.9c-0.8,0.4-1.6,0.7-2.4,1.1c-0.5,0.2-1.1,0.5-1.6,0.7
		c-0.2,0.1-0.7,0.2-0.8,0.4c-0.3,0.4,0.1,0.8-0.5,0.9c-0.5,0.1-0.9,0.3-1.2-0.1c-0.3-0.4-0.8-0.7-0.5-1.1c0.2-0.3,1-0.2,1.3-0.2
		c-0.3-0.4-0.6-1-1-1.1c-0.6-0.1-1.2-0.2-1.8-0.2c0.1,0.1,0.6,0.6,0.6,0.8c-0.1,0.4-0.2,0.9-0.3,1.3c0-0.1,0.5,0.7,0.5,0.7
		c0.1,0.3-0.1,0.8-0.2,1.1c-0.5-0.1-1-0.3-1.5-0.4c-0.3-0.1-0.7,0.4-1,0.5c-0.5,0.3-0.9,0.6-1.4,0.9c-0.1,0,0.4,1.2,0.5,1.4
		c-0.6-0.2-1.2-0.4-1.8-0.6c-0.8-0.3-0.8-0.4-1.4,0.2c0.3,0.3,0.4,0.7,0.8,0.7c0.4,0,0.6,0.6,0.2,0.8c-0.7,0.3-1.5-0.5-2.2-0.8
		c-0.6-0.3-0.5-1.6-0.5-2.2c0-0.7-1.2-1.5-1.7-1.9c1.5,0.7,2.8,1.1,4.4,1.5c0.9,0.2,1.1,0.2,2-0.1c0.4-0.1,0.5-0.4,0.7-0.7
		c0.4-0.6,0.4-0.6,0.2-1.3c-0.2-0.7-1-1.1-1.6-1.3c-0.8-0.3-1.4-0.6-2.2-1c-0.8-0.4-1.2-0.7-2.1-0.7c-0.4,0-2,0.3-1.8-0.6
		c0.3,0.1,0.7,0.4,0.8-0.1c-0.2-0.1-0.8-0.5-0.9-0.3c-0.3,0.4-0.8,0.2-1.2,0.2c-0.2,0-0.7,0.2-0.8,0.1c-0.2-0.4-0.6-0.3-0.8-0.7
		c0.4,0,0.9,0.2,1.3,0.1c0.2,0,1-0.5,0.6-0.7c-0.5-0.2-1.1-0.4-1.6-0.6c-0.5-0.2-0.2,1-0.8,0.5c0.1-0.2,0.3-0.5,0.4-0.7
		c-0.2,0-0.8-0.2-0.9,0c-0.2,0.3-0.5,0.6-0.7,1c0-0.3-0.1-0.5-0.2-0.8c-0.3,0.4-0.8,1.3-1.3,1.4c0.2-0.9,0.5-1.1,1-1.8
		c-0.5,0-1.1,0-1.5,0.3c-0.4,0.3-0.7,1-1.1,1.1c-1.2,0.4-2.4,0.8-3.6,1.3c-1.1,0.5-1.8,1.5-2.6,2.3c-0.8,0.9-1.7,1.7-2.3,2.7
		c-0.7,1.1-1.1,2.2-2,3c-0.4,0.4-0.8,0.8-1.2,1.3c-0.4,0.5-0.9,0.7-1.5,0.9c-0.5,0.2-0.9,0.4-1.3,0.8c-0.7,0.6-0.8,0.6-0.8,1.6
		c-0.1,1.2,0.4,2.3,0.4,3.5c0,1,1.6,1.2,2.2,0.8c0.4-0.2,0.7-0.7,1.1-0.9c0.6-0.4,0.7-0.5,0.9-1.2c0.1,0.3,0.1,0.7,0.4,0.8
		c0.3,0.1,0.1,0.5,0.1,0.8c0.1,0.3,0.3,0.6,0.4,0.8c0.1,0.2,0,0.5,0.1,0.7c0.3,0.4,1,1,0.9,1.5c-0.1,0.2,0,0.7,0.1,0.9
		c0.1,0.5,0.1,0.4,0.6,0.4c0.3,0,0.5,0.1,0.6-0.2c0.1-0.3,0.1-0.6,0.3-0.6c0.6-0.1,1.2-0.1,1.5-0.9c0.2-0.5,0.2-1.4,0.3-2
		c0.1-0.7,0.5-0.9,1.1-1.4c0.3-0.3,1-0.6,0.8-1c-0.3-0.6-1.1-0.6-1.4-1.1c-0.7-1.2,0.4-2.5,1-3.3c0.2-0.3,2.8-1.6,2.5-2.1
		c-0.3-0.6-0.1-1,0.3-1.4c0.7-0.7,0.7-0.7,1.7-0.7c0.7,0,1.2,0.3,1.4,1c0.2,0.6-0.3,0.3-0.5,0.4c-0.3,0.1-0.6,0.8-0.8,1
		c-0.4,0.5-1,0.9-1.5,1.4c-0.2,0.2-0.7,0.6-0.8,0.9c-0.1,0.3,0.2,1,0.3,1.3c0.1,0.4,0.1,0.6,0,1c-0.1,0.6-0.1,0.6,0.4,0.8
		c0.4,0.2,0.5,0.3,0.8,0.7c0.1,0.1,0.7-0.1,0.8-0.1c1.4-0.3,2.8-0.6,4.2-0.9c-0.1,0.1-0.1,0.3-0.1,0.4c0.4,0.2,1.3,0.3,1.4,0.8
		c-0.2,0-0.7-0.2-0.9-0.1c-0.3,0.2-0.7,0.1-0.9,0.2c-0.4,0.3,0.2,0.5-0.5,0.4c-0.5-0.1-1-0.1-1.5-0.2c-0.7-0.1-1.4,0.3-2,0.6
		c-0.1,0,0.1,0.8,0.2,0.9c0.1,0.1,0.2,0.3,0.4,0.4c0.1,0.1,0.2-0.2,0.3-0.1c0.1,0-0.1,0.8-0.1,1c0,0.3-0.2,0.8-0.5,0.8
		c-0.6,0-0.8-1.4-1.7-0.8c-0.3,0.2-0.2,0.6-0.4,0.9c-0.2,0.3-0.3,0.5-0.3,0.9c0,0.4,0.6,2.2-0.4,1.7c0.1-0.2,0.3-0.3,0.4-0.5
		c-0.1,0.2-0.4,0.3-0.6,0.5c-0.1,0.1-0.2,0-0.3,0.1c-0.1,0.1-0.1,0.4-0.2,0.5c-0.3,0.3-1.1,0.3-1.1-0.3c0.1,0.1,0.3,0.1,0.4,0.2
		c-0.6-0.5-1.8-0.1-2.2,0.4c-0.3,0.3-1.6,0.4-1.9,0.6c0.2,0,0.3,0,0.5,0c0,0.1,0,0.2-0.1,0.3c-0.3-0.2-0.6-0.2-0.7-0.6
		c-0.1-0.2-0.6-0.5-0.8-0.5c-0.5,0.1-1,0.9-1.6,0.6c0.1-0.2,0.2-0.4,0.2-0.5c-0.6,0.3-1.2-0.3-1.3-0.9c-0.1-0.9,0.7-1.1,1.1-1.8
		c-0.7-0.2-0.6-1.2-0.2-1.7c-0.5,0.2-0.9,0.8-1.4,0.8c-0.7,0-0.8,0.7-0.8,1.4c0,0.4,0,0.5,0.2,0.8c0.3,0.3,0.1,0.5,0.2,0.9
		c0.1,0.4,0.4,0.4,0.1,0.6c-0.2,0.2,0.2,0.6,0.4,0.6c-0.3,0-0.7-0.1-0.6,0.4c-0.2,0-0.5-0.1-0.7-0.1c-0.2,0-0.3,0-0.5,0.1
		c-0.1,0-0.1,0.3-0.1,0.3c-0.5,0.2-1-0.1-1.5,0.4c-0.1,0.2-0.5,0.1-0.5,0.3c-0.1,0.5-0.2,0.7-0.4,1c-0.1,0.1,0,0.3-0.1,0.4
		c0,0-0.4,0.1-0.4,0.1c0,0.2,0.4,0.2,0.6,0.3c-0.4,0-0.7-0.1-1.1,0.1c-0.2,0.1-1,0.3-1.1,0.5c-0.3,0.4,0.3,0.7-0.2,1
		c-0.4,0.2-0.8,0.3-1.1,0.6c0.1,0,0.2,0.1,0.3,0.1c-0.5,0.2-0.7,0.2-1.2,0.2c-0.2,0-0.2,0-0.3-0.3c-0.1-0.2-0.4-0.1-0.6-0.2
		c0.2,0.4,0.3,0.6,0.3,1c0,0.2-0.8,0.4-0.9,0.4c-0.4,0.1-0.1-0.7-0.7-0.3c-0.3,0.2-0.7,0.2-1.1,0.2c0,0.3,0.1,0.4,0.4,0.5
		c-0.1,0-0.2,0.1-0.3,0.1c0.2,0.3,0.3,0.3,0.5,0.3c0.3,0,0.4,0.1,0.7,0.3c0.1,0,0.4,0.1,0.6,0.1c0.1,0.1,0,0.3,0.3,0.2
		c-0.1,0.2,0,0.8,0.3,1c0.6,0.2,0.5,0.4,0.5,1.1c0,0.7,0.1,2.4-0.8,2.6c-0.3,0.1-0.9,0-1.2-0.1c-0.5-0.2-0.9,0.1-1.4-0.1
		c-0.6-0.2-0.9-0.2-1.5,0c-0.5,0.1-0.7-0.5-1.2-0.1c0,0.1,0.1,0.1,0.1,0.2c-0.2,0-0.8,0-0.9,0.3c-0.1,0.3,0.1,0.8,0.4,0.5
		c-0.1,0.5-0.2,1.1,0,1.6c0.2,0.5-0.2,1.4-0.3,1.9c-0.1,0.6-0.4,0.7,0,1.2c0.1,0.1,0.3-0.1,0.3,0.1c0,0.2,0,0.4,0,0.5
		c0,0.3-0.1,0.6-0.1,1c0.4-0.3,0.7,0.1,1.2-0.2c0.5-0.3,0.8,0.4,1.2,0.2c-0.4,0.3,0.2,1.1,0.6,1c0.4-0.1,0.7-0.7,1.2-0.7
		c0.6,0,1.1,0.1,1.7,0c0.2,0,0.4-0.5,0.5-0.7c0.1-0.2,0.6-0.2,0.8-0.2c-0.2-0.3,0.4-0.8,0.6-1c0.3-0.4-0.4-0.7-0.2-1
		c0.5-0.9,0.8-1.6,1.7-2.1c0.3-0.2,1-0.3,1.2-0.6c0.2-0.3-0.1-1.1,0-1.2c0.2-0.2,0.6-0.8,0.9-0.7c0.5,0.2,1.1,0.4,1.6,0.5
		c0.2,0.1,1.8-1.1,2-1.3c0.2-0.3,0.6-0.2,0.9,0c0.6,0.3,0.6,0.4,0.8,1.1c0.2,0.8,1,1,1.5,1.6c0.3,0.3,0.6,0.8,1,0.7
		c0.2,0,0.9,0.4,0.8,0.7c0.2-0.1,0.6,0,0.5,0.3c0,0.3,0.4,0.3,0.5,0.3c0.1,0,0.6,1.3,0.4,1.4c-0.3,0.2-0.1,0.3-0.3,0.5
		c-0.3,0.2-0.8,0.2-1.1,0.2c-0.3,0.1-1.4,0-1.5-0.2c-0.8,0.9,1.3,0.8,1.4,1.4c0.1,0.3,1,0.2,0.7-0.2c-0.2-0.4-0.1-0.9,0.3-1.2
		c0,0.7,0.8-0.1,0.8-0.5c0-0.3,1-0.4,0.4-0.9c-0.2-0.2-0.4-0.1-0.4-0.5c0.1-0.4,0.1-0.4,0.4-0.7c0.3-0.2,0.9,0.6,1.1,0.7
		c0.6-0.7-1.6-1.6-2-2c0.5-0.4-0.1-0.4-0.4-0.4c-0.5,0-0.7-0.3-1-0.6c-0.3-0.3-0.3-0.8-0.5-1.1c-0.2-0.3-0.7-0.5-1-0.8
		c-0.4-0.3,0-0.8-0.1-1c-0.3-0.6,0-0.6,0.5-0.8c0.5-0.1,0.4-0.3,0.5,0.2c0.1,0.5,0.4,0.8,0.6,0.1c0.5,0.4,0.6,0.6,0.8,1.2
		c0.1,0.2,0.6,0.9,0.8,0.9c0.8,0.1,1.6,0.8,2.2,1.4c0.5,0.4,0.7,0.4,0.7,1.1c-0.1,0.7-0.3,1.1,0.3,1.5c0.3,0.2,0.5,0.8,0.7,1.2
		c0.4,0.6,0.4,0.7,1.1,0.7c-0.7,0.6-0.5,0.7-0.3,1.6c0.3-0.2,0.4-0.3,0.6,0c0.2,0.4,0.4,0.3,0.8,0.4c-0.1-0.4-0.3-0.5,0-0.8
		c0.3-0.2,0.3-0.5-0.2-0.6c0.3-0.4,0.6-0.1,0.9,0.1c0.1-0.8-0.5-0.9-1-1.3c0.4-0.4,0.4-0.4,0.1-0.9c-0.2-0.3-0.5-0.7-0.2-1
		c0.3,0.2,0.5,0.5,0.9,0.2c0.1-0.1-0.1-0.4,0-0.5c0.2-0.1,0.4-0.2,0.6-0.2c0.4,0.1,0.6,0,1.1,0.2c0.3,0.1,0.6,0.1,0.8,0.2
		c-0.3,0.2-0.6,0.3-0.5,0.7c0.4-0.4,0.8-0.8,1.3-1.2c0.3-0.3,1.1,0.3,1.2-0.2c0-0.1-0.8-0.5-1-0.9c-0.3-0.5-0.4-1.1,0.2-1.5
		c0.5-0.4,0.5-0.9,0.7-1.5c0-0.2,0.5-0.2,0.6-0.4c0.1-0.2,0.1-0.7,0.1-0.9c0.1-0.4,0.8-0.9,1-1.2c0.2-0.3,1.2,0.2,1.5,0
		c-0.2,0.4-0.6,0.2-1,0.2c0.2,0.1,0.4,0.4,0.6,0.4c0.3,0,0.6-0.1,0.8,0c0.8,0.3-0.4,0.7-0.7,0.9c0.6,0.3,1,0.2,0.7,1
		c0.5,0.4,1.3-0.4,1.7-0.6c0.4-0.2,0.8,0.3,1.2-0.4c-0.5,0-1,0.2-1.3-0.2c-0.3-0.3-0.5-1.1,0.1-1c0,0.1-0.1,0.2-0.1,0.2
		c0.5-0.5,0.7-0.6,1.3-0.7c0,0.1,0,0.1,0,0.2c0.4-0.5,1-0.5,1.5-0.6c0.2,0,0.7-0.2,0.6,0.2c-0.1,0.3-0.8-0.1-0.6,0.4
		c-0.2,0-0.4,0-0.7,0c0.1,0.3,0.5,0.5,0.7,0.7c-0.5,0-1,0.2-0.8,0.9c-0.2,0-0.4-0.1-0.7-0.1c0,0-0.2,0.2-0.2,0.3
		c0.2,0.2,0.5,0.4,0.7,0.5c0.1,0.1,0.5,0.4,0.6,0.4c0.6,0.1,1,0.6,1.4,1c0.4,0.4,0.9,0.5,1.3,0.9c0.3,0.3,0.5,1.1,0.1,1.3
		c-0.5,0.3-1,0.6-1.6,0.5c-0.5-0.1-0.9,0.3-1.4,0c-0.3-0.1-1.3-0.3-1.4-0.5c-0.4-0.5-0.2,0-0.6-0.2c-0.2-0.1-0.4-0.3-0.3-0.5
		c-0.5,0.2-1,0.1-1.5,0c-0.4,0-0.9,0.3-1.2,0.5c-0.5,0.3-0.6,0.5-1.2,0.4c-0.4,0-1.1-0.2-1.3,0.2c0.2,0.1,0.4,0.2,0.6,0.3
		c-0.7,0.4-1.1,0.4-1.9,0.4c-0.4,0-1.4,0.2-1.3,1c0.2,0,0.5-0.1,0.7-0.1c-0.7,0.8,0.4,2.6,1,2.9c0.3,0.2,1,0.8,1.5,0.7
		c0.4-0.1,0.4-0.1,0.6-0.5c0.1-0.4,0.4-0.2,0.7-0.1c0.5,0.1,0.7,0.7,1.3,0.7c0.2,0,0.7,0.1,0.9,0c0.2-0.1,0.4-0.6,0.7-0.7
		c0.2,0,0.4,0.3,0.6,0.2c0.1-0.1,0.4-0.4,0.6-0.2c0.2,0.2-0.5,1.1-0.2,1.6c0.5,0.7-0.7,2.8-1,3.5c-0.4,1.1-1.7,1.2-2.6,0.8
		c-0.7-0.4-0.8-0.2-1.5,0.1c-0.7,0.3-0.8,0.3-1.5,0.1c-0.6-0.2-1.3-0.4-1.9-0.6c-0.1,0-0.5,0.3-0.5,0.2c-0.2-0.3-0.2-0.5-0.5-0.5
		c-0.4-0.1-0.8-0.2-1.2-0.2c-0.2,0-0.1-0.4-0.3-0.5c-0.9-0.2-1.3-0.1-2.1,0.1c-0.2,0-0.4,0.6-0.5,0.8c-0.1,0.2,0.3,0.6,0.1,0.8
		c-0.5,1-0.9,0.8-1.7,0.3c-0.5-0.4-1.1-0.3-1.7-0.5c-0.7-0.3-0.5-1-1.2-1.2c-0.9-0.2-1.8-0.5-2.6-0.7c-0.5-0.1-1-0.8-1.4-1.2
		c0.3-0.3,1-0.8,0.8-1.2c-0.4-0.8-0.3-0.8,0-1.7c-0.5-0.2-1-0.6-1.5-0.3c-0.6,0.4-1.1,0.2-1.8,0.2c-0.2,0-0.5-0.1-0.7,0
		c-0.3,0-0.5,0.4-0.8,0.4c-0.2,0-0.6-0.2-0.8-0.3c-0.3-0.1-0.7,0.1-1,0.1c-1,0.1-2.2,0.6-3.2,1c-0.5,0.2-1,0.6-1.5,0.9
		c-0.1,0.1-0.6-0.3-0.7-0.4c-0.2-0.1-0.7,0.1-1,0.2c-0.5,0.1-1-0.8-1.1-0.7c-0.6,0.2-0.8,1.1-1,1.7c-0.4,0.9-2.2,1.1-2.4,2
		c-0.1,0.8-0.2,1.6-0.4,2.4c-0.1,0.6-0.3,0.6-0.8,1c-1,0.6-1.7,0.9-2.3,2c-0.8,1.5-1.7,3-2.5,4.5c-0.1,0.3-0.5,0.7-0.5,1
		c-0.1,0.5,0.3,1.4,0.4,1.8c0.2,0.7,0.3,1.4,0.5,2.1c0.1,0.4-0.4,1.2-0.5,1.6c-0.1,0.2-0.5,1.1-0.4,1.3c0.3,0.5,0.6,1,0.8,1.4
		c0.9,1.5,1.7,3,2.6,4.5c0.5,0.9,1,1.2,1.8,1.8c0.7,0.5,1.4,1,2,1.5c0.3,0.2,0.6,0.7,1,0.5c0.7-0.2,1.4-0.5,2.1-0.7
		c0.6-0.2,0.9,0,1.5,0.1c0.6,0.1,0.8,0.3,1.3,0c0.6-0.3,1.3-0.7,1.9-1c0.3-0.2,3.1-0.6,3.3-0.4c0.4,0.5,0.9,1.1,1.3,1.6
		c0.3,0.4,1.2,0.1,1.6,0.1c0.8,0,0.7,0,1.2,0.7c0.4,0.6,0.4,0.6,0.3,1.4c-0.1,0.9-0.2,1.7-0.3,2.6c-0.1,0.4-0.2,0.9,0,1.2
		c0.5,0.6,0.9,1.2,1.4,1.9c0.2,0.3,0.8,0.8,0.9,1.2c0.3,1.4,0.6,2.7,1,4.1c0.3,1.3,0.7,2.2,0,3.5c-0.7,1.3-0.7,2.6-1,4.1
		c0,0.3-0.2,0.9-0.1,1.2c0.3,0.7,0.7,1.3,1,2c0.5,1,1.1,1.9,1.3,3.1c0.1,0.9,0.3,1.7,0.4,2.6c0,0.3,0,1.3,0.3,1.6
		c0.3,0.3,0.9,0.7,1.1,1.1c0.3,0.7,0.6,1.5,0.9,2.2c0.1,0.3,0.6,1,0.5,1.4c-0.1,1-0.1,1,0.6,1.6c0.2,0.2,0.8,0.9,1.1,0.9
		c0.6-0.1,1.2-0.3,1.8-0.4c1.3-0.3,2.6-0.5,3.9-0.8c0.4-0.1,0.9-0.8,1.2-1c0.5-0.4,1-0.8,1.5-1.3c0.8-0.9,1.5-2.1,2.2-3.1
		c0.2-0.3,0.2-1.4,0.2-1.8c0.1-0.8-0.1-1,0.5-1.3c0.4-0.2,1.5-0.4,1.7-0.8c0.3-0.4,0.2-1.6,0.2-2.1c0-0.4-0.5-1.3-0.7-1.7
		c-0.2-0.6,0.2-0.8,0.6-1.2c0.4-0.5,0.9-1,1.3-1.5c0.3-0.4,1.2-0.6,1.7-0.8c0.8-0.4,1.6-1.5,1.5-2.5c-0.1-1.3,0.2-3-0.6-4
		c-0.5-0.7-0.6-0.7-0.5-1.6c0.1-1,0.1-1.1-0.5-1.9c-0.3-0.5,1.6-3,1.9-3.5c1.3-2.2,3.3-3.9,5.1-5.8c0.7-0.7,1-1.6,1.5-2.5
		c0.5-1,1.4-2.1,1.6-3.2c0.1-0.3,0.6-1.7,0.4-1.9c-0.2-0.4-1-0.1-1.3,0c-1.4,0.4-2.9,0.8-4.3,1.2c-0.4,0.1-1-1-1.5-1.1
		c0.8-0.8-0.2-1.4-0.7-2c-0.3-0.4-0.6-0.7-0.9-1.1c-0.2-0.2-1-0.2-1.1-0.5c-0.3-0.8-0.5-1.9-1-2.6c-0.2-0.4-0.7-0.7-1-1
		c-0.2-0.2-0.2-0.9-0.3-1.2c-0.1-0.6-0.2-1.1-0.3-1.7c-0.1-0.3-0.6-0.7-0.8-0.9c-0.5-0.5-0.4-1.3-0.7-1.9c-0.5-1.1-1.1-2.2-1.6-3.3
		c-0.3-0.5-1.1-1.5-0.6-2.1c0.4,0.9,0.8,1.5,1.4,2.2c0.2-0.6,0.4-1.2,0.6-1.7c-0.1,0.5-0.1,1-0.2,1.5c0.5-0.1,0.7,0.5,0.9,0.9
		c0.4,0.8,0.9,1.6,1.3,2.4c0.2,0.4,0.6,0.5,0.8,0.9c0.3,0.6,0.7,1.1,0.8,1.8c0.1,0.4,0.1,1.6,0.5,1.8c0.7,0.3,0.7,0.4,1.1,1
		c0.7,1.1,1.3,2,1.5,3.3c0.2,0.8,0.3,1.7,0.5,2.5c0.2,0.8,0.2,0.6,1,0.6c0.5,0,0.6-0.5,1.1-0.7c0.6-0.2,1.3-0.4,1.9-0.5
		c0.3-0.1,0.5,0,0.7-0.3c0.1-0.2,0.2-0.3,0.4-0.4c0.7-0.3,1.5-0.5,2.2-0.8c0.4-0.1,0.4-0.7,0.8-0.9c0.3-0.1,0.6-0.3,1-0.4
		c0.2-0.1,0.6,0.2,0.8,0.1c0.3-0.1,0.2-0.9,0.5-1c0.4-0.2,0.9-0.4,1.3-0.6c0.4-0.2,0.6-0.2,0.6-0.7c0-0.6,0.1-0.9,0.4-1.4
		c0,0.1,0.1,0.3,0.1,0.4c0.3-0.3,1.2-1.1,1.2-1.5c0-0.4,0.2-0.7-0.2-0.8c-0.2,0-0.4-0.6-0.6-0.9c-0.2-0.3-0.5-0.2-0.8-0.3
		c-0.3-0.1-0.6-0.4-0.9-0.6c-0.5-0.3-0.3-1.3-0.4-1.9c-0.5,0.6-1.1,1.6-1.7,2c-0.6,0.4-1.8,0.3-2.5,0.3c0-0.8,0.1-1.5-0.3-2.2
		c-0.1,0.5-0.2,0.9-0.2,1.4c-0.5-1-1.1-2.1-1.7-3.1c-0.2-0.3-1-1.3-0.8-1.5c0.7-0.8,0.7-0.8,1.6-0.7c0.6,0.1,0.7,0.8,0.9,1.3
		c0.4,0.8,0.4,0.9,1.2,1.3c0.4,0.2,0.7,0.8,1.2,0.8c0.7,0.1,1.2,0.2,1.9,0c0.8-0.3,0.7-0.1,1.2,0.8c0.2,0.5,0.8,0.4,1.2,0.5
		c1.1,0.2,2.1,0.7,3.2,0.5c0.5-0.1,3.4-0.7,3.6-0.3c0.2,0.4,0.4,1.3,0.8,1.5c0.5,0.3,1.1,0.8,1.7,1c0.2,0,0.5,0,0.7-0.1
		c-0.1,0.5-0.9,0.5-1.3,0.6c0.4,0.4,1,1.4,1.5,1.5c0.5,0,0.5,0.1,0.8-0.3c0.3-0.4,0.6-0.8,0.9-1.2c0,1.4,0.1,2.7,0.1,4.1
		c0,0.4,0,1,0,1.4c0.1,0.6,0.5,1.3,0.8,1.8c0.9,2.1,1.9,4.3,3,6.3c0.4-0.3,0.8-0.5,1.2-0.8c0.4-0.2,0.3-0.7,0.3-1.2
		c0.4,0.5,0.7,0.6,0.6,1.2c0,0.7,0,1.3,0.1,1.9c0.1,1.5,2,0.5,1.5-0.6c-0.3-0.6-0.5-1.1-0.9-1.6c-0.5-0.6-0.6-0.9-0.8-1.7
		c-0.1-0.5,0.3-1.2,0.4-1.7c0.1-0.5,0-1.3,0-1.8c0-0.6-0.2-1,0.3-1.2c0.4-0.2,1.1-0.4,1.4-0.7c1-1,1.9-2,2.9-3
		c0.3-0.4,0.7-0.7,1-1.1c0.1-0.1-0.1-0.6,0-0.7c0.1-0.1,0.5-0.1,0.6-0.1c0.7-0.1,1.4-0.2,2.1-0.3c0.4-0.1,0.9-0.6,1.2-0.8
		c0.3,0.8,0.6,1.7,1.2,2.2c0.8,0.6,1,1.4,1.4,2.3c0.1,0.3-0.1,1-0.2,1.3c-0.1,0.7-0.1,0.6,0.5,0.7c0.6,0.1,0.5,0.1,0.9-0.3
		c0.3-0.4,0.6-0.7,0.9-1.1c0.5,1.4,0.9,2.7,1,4.2c0.1,0.8,0.2,1.6,0.2,2.4c0,0.4-0.4,1.9-0.1,2.2c0.6,0.6,1.1,1.2,1.7,1.8
		c0.4,0.4,0.5,1.6,0.7,2.2c0.3,0.8,0.3,1.1,0.9,1.5c0.6,0.5,1.1,1,1.9,1.1c-0.2-0.5-0.5-1.1-0.6-1.6c-0.1-0.6,0.1-1.3-0.1-1.8
		c-0.1-0.4-0.7-0.9-1-1.1c-0.3-0.3-1.2-0.7-1.4-1.1c-0.1-0.3-0.4-1.8-0.6-1.7c-0.4,0-0.4,0.1-0.5-0.4c0-0.3-0.1-0.5,0-0.8
		c0.2-0.6,0.5-1.1,0.6-1.7c0.1-1-0.1-1.1,0.8-1.2c0,0.2-0.1,0.5-0.1,0.7c1,0,1.5,0.5,2.2,1.2c0.4,0.4,0.8,0.8,1.2,1.3
		c0.3,0.3-0.3,0.9,0.1,1.3c1.2-0.9,2.3-1.9,3.5-2.9c0.4-0.4,0.1-1.6,0.1-2.2c0-0.9-0.3-1.1-0.9-1.8c-0.4-0.6-0.9-1.1-1.3-1.7
		c-0.3-0.4-0.5-0.8-0.8-1.2c-0.1-0.2,0.3-0.9,0.3-1.1c0.2-0.6,1.2-1.1,1.7-1.4c0.5-0.4,1.3-0.1,1.8,0.2c-0.1,0-0.3,0.2-0.4,0.2
		c0.1,0.2,0.2,0.8,0.3,0.8c0.5,0.2,0.5-0.3,0.4-0.6c-0.1-0.4-0.2-0.4,0.2-0.5c0.4-0.1,0.8-0.3,1.2-0.4c1.3-0.5,2.6-1,3.9-1.6
		c1.2-0.5,1.9-1.7,2.7-2.8c0.8-1,1.3-2.4,1.9-3.6c-0.5-0.1-1-0.3-1.5-0.4c0.4-0.3,0.8-0.6,1.2-0.9c-0.5-0.4-1.1-0.8-1.6-1.2
		c0.5,0.1,1,0.2,1.5,0.3c-0.3-0.7-0.6-1.4-0.9-2.1c-0.3-0.5-0.8-0.8-1.2-1.2c1-0.8,2-1.7,3-2.5c-0.9-0.2-1.6-0.6-2.4-0.2
		c-0.6,0.3-0.6,0.4-0.9-0.2c-0.3-0.4-0.6-0.8-0.9-1.1c-0.2-0.3,0.6-0.6,0.7-0.6c0.5-0.2,0.8-0.4,1.2-0.7c0.3-0.3,0.6-0.5,1-0.7
		c0.6-0.3,0.6-0.2,1.1,0.2c-0.5,0.5-1.2,1.1-0.9,1.9c0.4-0.2,0.8-0.5,1.2-0.7c0.3-0.2,0.9-0.7,1.2-0.7c0.1,0,1,0.6,1,0.6
		c-0.1,0.3-0.5,1.1-0.4,1.5c0.1,0.6,0.8,0.4,1.2,0.3c0.4,0,0.6,0.5,0.3,0.8c-0.5,0.6,0.1,0.5,0,1.2c-0.1,0.5-0.1,1.1-0.2,1.6
		c0.7,0,1.1,0,1.8-0.3c0.8-0.4,0.7-0.6,0.8-1.6c0.2-1.4-0.7-2.4-1.6-3.2c0.9-0.9,1.8-1.5,2.2-2.7c0.3-0.8,0.3-1,0.9-1.3
		c0.1-0.1,0.6-0.5,0.8-0.5c0.2,0,0.4,0.6,0.6,0.6c0.4-0.1,1.1-0.1,1.4-0.4c0.6-0.6,1.2-1.2,1.7-1.7c0.9-0.8,1.4-1.8,2.1-2.9
		c0.7-1.1,1.2-1.8,1.5-3.1c0.3-1.4,0.6-2.7,0.9-4.1c0.1-0.6-2-2.3-2.4-1.6c-0.4,0.9-0.5,0.7-1.4,0.6c-0.1,0-0.3-0.7-0.3-0.8
		c-0.2-0.4-0.2-0.4-0.6-0.4c-0.3,0-0.6,0-0.8-0.4c1.2-0.8,2.3-1.6,3.3-2.7c1.1-1.1,2.2-2.2,3.4-3.3c0.3-0.3,1.6-0.1,2-0.1
		c0.7,0,1.3,0,2,0.1c0.3,0,0.5,0.2,0.8,0c0.2-0.1,0.7-0.6,0.9-0.5c0.7,0.1,1.5,0.3,2.2,0.4c-0.3,0.2-0.6,0.4-0.8,0.6
		c0.8-0.1,1.5-0.2,2.3-0.3c0.2,0,0.9-0.1,1-0.2c0.2-0.3-0.4-0.6-0.6-0.8c0.7-0.8,1.4-1.6,2.2-2.3c0.5-0.4,0.7-0.4,1.4-0.4
		c0.7,0,0.9-0.1,1.5-0.5c-0.2,0.9-0.2,1.2,0.1,2c0.6-0.5,1.5-1,2-1.7c0.2-0.3,0.4-1,0.8-1c0.5-0.1,0.8,0,1.4,0.1
		c-0.1,0-0.9,0.1-0.9,0.2c-0.1,0.5-0.3,1.1-0.4,1.6c-0.2,0.7-0.9,0.9-1.4,1.3c-0.8,0.6-1.4,1-1.9,1.8c-0.5,0.9-1.1,1.1-2,1.5
		c-3.2,1.6-1.3,6.6-0.7,9.3c0.5-0.6,1.4-1.3,1.5-2.1c0.1-0.8,0.2-0.7,0.8-0.9c0.6-0.1,0.4-0.6,0.4-1.2c0-0.5,0.4-0.5,0.8-0.6
		c0.2-0.1,0.9-0.4,0.9-0.5c-0.5-1.1,0.3-1.5,1.2-1.9c-0.5-0.7-0.5-0.7-0.2-1.6c0.1-0.4-0.9-0.5-1.2-0.6c0.6-0.9,1.1-1.8,1.7-2.7
		c0.2-0.4,0.6-0.2,1-0.1c0.3,0,0.9-0.4,1.2-0.5c0,0.3,0,0.6,0,0.9c0.6-0.9,0.6-0.9,1.6-1c1-0.1,1.1,0,1.8,0.7c0.4-1,1.3-1.3,2.2-1.8
		c1.1-0.7,2.2-1.4,3.3-2c0.3-0.2,0.9,0.1,1.2,0.2c0.2,0,0.6,0.2,0.8,0.1c0.1,0,0.4-0.5,0.4-0.5c-0.4-0.6-0.7-0.9-0.8-1.7
		c0-0.6-0.6-0.8-1.1-1.1c0.5-0.1,2.6-0.3,2.6-1c0-0.4-0.1-1.4,0.3-1.5c0.8-0.1,0.2,1,0.5,1c0.6,0,1.2,0.1,1.8,0.1
		c0.6,0,0.5,0.6,0.6,1.1c0.1,0.4,0.8,0,1.1,0.2c0.5,0.4,0.7,0.5,1.4,0.6c-0.1-0.4-0.4-0.9,0-1C318.5,82.1,318.4,81.9,318.4,81.4
		L318.4,81.4L318.4,81.4z M204.7,112.6c0.2,0.2,0.6,0.4,0.5,0.8c-0.3,0.1-1.7,0-1.6-0.1c-0.1,0.3-0.3,0.6,0,0.9
		c0.1,0.1,0.4,0,0.5,0.1c0.1,0.1,0.1,0.4,0.2,0.6c-0.1,0-0.2,0-0.3,0c0.4,0.6,0.8,0.2,0.6,1.1c-0.1,0.6,0,1.2,0.1,1.8
		c-0.5,0.1-1.3,0.4-1.8,0.2c-0.4-0.1-0.7-0.2-1.1-0.3c-0.3-0.1-0.3-0.4-0.7-0.5c-0.4-0.1-0.6,0-0.6-0.5c0-0.4-0.1-0.7,0.1-1.1
		c0.1-0.3,0.3-0.7,0.4-1c0.1-0.6,0.2-0.5,0.7-0.7c-0.6-0.3-0.7-0.5-1.1-1.1c-0.2-0.4-0.7-0.5-0.9-0.9c-0.3-0.7-0.4-1-0.4-1.7
		c0-0.5-0.5-0.8-0.9-0.9c0.2-0.2,0.6-0.5,0.6-0.7c0.1-0.6,0.1-0.6,0.6-0.8c0.2-0.1,1-0.3,1-0.5c0.2-0.9,0.2-0.5,0.8-0.6
		c0.3,0,0.7-0.5,1-0.4c0.3,0.1,0.8,0.5,1,0.1c0.3-0.3,0.6,0.4,0.6,0.6c0.2,0.3-0.1,0.8-0.2,1.1c0.7,0.2,0.9-0.3,1.2,0.5
		c-0.5,0.1-0.7,0.3-1,0.8c0-0.4,0.3-0.8,0.6-0.9c-0.4-0.2-1.2-0.2-1.7-0.3c-0.2,0-0.5,0.1-0.7,0.3c-0.2,0.4,0,0.4,0.3,0.7
		c-0.4,0.3-0.5-0.2-1-0.1c-0.4,0.1,0.5,0.5,0.5,0.5c0,0.3,0,1,0.2,1.2c0.2,0.3,0.9,0.4,1.2,0.5c-0.3,0.7-0.2,1,0.2,1.7
		c0-0.4,0.1-1.5,0.8-1.1C204.6,112.1,204.6,112.5,204.7,112.6L204.7,112.6L204.7,112.6z M60.7,62c0.2-0.3,0.6-0.2,0.9-0.2
		c0.1,0.1,0.2,0.2,0.3,0.2C61.6,62.3,61.1,62.1,60.7,62L60.7,62L60.7,62z M91.9,136.7L91.9,136.7c0.3,0.2,0.6,0.4,1,0.5
		c0.2,0.1,0.4-0.3,0.8-0.2c-0.1-0.1-0.1-0.2-0.2-0.3C93,136.6,92.2,136.1,91.9,136.7L91.9,136.7z M88.9,107.9L88.9,107.9
		c0,0-0.1,0.1-0.1,0.1l0.1,0.1c0.1-0.2,0.2-0.3,0.1-0.4c0,0-0.1,0.1-0.1,0.1c-0.1-0.3-0.3-0.3-0.5-0.2c-0.3,0.1-0.4-0.2-0.7,0.1
		c0.1,0,0.2,0,0.2,0.1C88.2,107.8,88.6,108.1,88.9,107.9L88.9,107.9z M87.2,107.2L87.2,107.2c-0.2-0.1-0.2-0.1-0.3,0
		c0.1,0.1,0.1,0.1,0.2,0.2C87.1,107.3,87.2,107.3,87.2,107.2L87.2,107.2z M87.6,107.6c-0.1,0-0.3,0-0.4-0.1c0.1-0.1,0.1-0.1,0.2-0.2
		c0.1,0.1,0.2,0.1,0.3,0.1C87.6,107.6,87.6,107.6,87.6,107.6L87.6,107.6L87.6,107.6z M111,101.5L111,101.5c0.1-0.2,0.2-0.5,0.3-0.7
		c-0.7-0.3-1.5,0.7-1.7,1.3c-0.4,1.1-0.8,1.5-1.6,2.3c-0.1,0.1-0.2,0.9-0.1,1.1c0.2,0.3,0.8,0.2,1,0.2c0.8-0.1,1.6-0.1,2.4,0.3
		c-0.3,0.1-0.5,0.3-0.4,0.6c0.7-0.1,0.9-0.6,1.6-0.7c-0.1,0.5-0.2,0.6,0.3,0.7c0.4,0.2,0.5,0.2,0.7-0.2c0.3-0.4,0-1.3-0.1-1.8
		c-0.1-0.3-0.6-0.4-0.5-0.6c0.1-0.5,0-0.5-0.3-0.8c-0.2-0.3-1.2,0.1-1.5,0.2c0-0.2,0-0.6-0.1-0.7c-0.1-0.1-0.4-0.1-0.4-0.3
		C110.5,101.9,110.6,101.8,111,101.5L111,101.5z M101.4,136.9L101.4,136.9c0.2,0.5,1.1,0.1,1.3-0.2c0-0.1-0.1-0.1-0.1-0.1
		C102.1,136.5,101.1,136.1,101.4,136.9L101.4,136.9z M94.3,135.1L94.3,135.1c0.3-0.1,0.7-0.2,1-0.3c-0.3-0.2-0.5-0.4-0.8-0.5
		c-0.2,0-0.4-0.4-0.5-0.4c-0.5,0-1.1-0.3-1.4-0.7c0,0,0,0.1-0.1,0.1c-1-0.7-2.1-1.3-3.3-1.4c-0.7-0.1-1.2,0.1-1.9,0.3
		c-0.5,0.1-0.7,0.7-1.1,0.9c0.9,0.5,1.9-1.5,2.8-0.6c-0.1,0.1-0.2,0.1-0.4,0.1c0.2,0.2,0.4,0.3,0.6,0.2c0.3-0.1,0.3,0.1,0.6,0.1
		c0.5,0,0.9,0.4,1.4,0.4c0.5,0.1,0.5,0.6,1,0.9c0.1,0.1,0.7-0.1,0.7,0.3c0,0.1-0.4,0.4-0.5,0.5C93,135.2,93.7,135,94.3,135.1
		L94.3,135.1z M104,106.3L104,106.3c-0.4,0.8,0.3,0.9,0.8,1.1c0.5,0.2,0.7-0.1,1-0.5c-0.5,0-1.1-0.1-1.6-0.1
		C104.1,106.6,104.1,106.4,104,106.3L104,106.3z M103.7,102.9L103.7,102.9c0.5,0.4,1.7,1.4,2.4,0.9
		C105.4,103.1,104.5,102.8,103.7,102.9L103.7,102.9z M128.6,160.4L128.6,160.4c0.3,1.1,0.3,1.1-0.3,2c-0.8,1.1-1.5,2.2-2.3,3.3
		c-0.4,0.5-0.8,0.9-0.8,1.6c-0.1,1.6-0.2,3.2-0.3,4.8c-0.1,1.1-1.2,2.2-1.7,3c-0.2,0.4-0.4,1-0.9,1c-0.4,0-1.4-0.1-1.7,0.1
		c-1.1,0.7-2.1,1.5-3.2,2.2c-0.2,0.2-0.2,1.7-0.2,2c0,0.3,0,0.9-0.2,1.2c-0.9,1.1-1.8,2.3-2.6,3.4c-0.8,1-1.6,2.1-2.4,3.1
		c-0.2,0.2-2.7-0.9-3.1-1c-0.2,0.9,1.2,1,1.4,1.7c0.1,0.4,0.4,1.1,0.3,1.4c-0.1,0.3-0.5,0.8-0.7,1.1c-0.5,0.8-1.2,0.8-2.1,1
		c-0.8,0.2-1.2,0.2-2.1,0c0.2,0.5,0.3,0.8,0.1,1.3c-0.1,0.3,0,0.8-0.2,1c-0.8,0.6-1.3,0.3-2.2-0.1c0,0.4-0.1,1,0,1.5
		c0.1,0.3,0.6,0.8,0.4,1.1c-0.3,0.6-0.5,1.2-0.8,1.7c-0.3,0.6-0.4,0.5-0.9,0.7c-0.5,0.1-0.6,0.6-0.9,1c-0.2,0.3,0.5,0.9,0.6,1.1
		c0.2,0.3,1,0,0.8,0.6c-0.2,0.5-0.3,0.7-0.6,1.1c-0.3,0.4-0.7,0.7-0.9,1.2c-0.2,0.7-0.4,0.7-1,1.1c-0.6,0.3,0.1,2.2,0.2,2.8
		c0,0.2,0,0.8,0.2,1c0.4,0.4,0.9,0.8,1.3,1.2c0.8,0.7,1.3,0.6,2.3,0.6c-0.9,0.4-1.8,0.8-2.7,1.2c-0.7,0.3-0.9,0.1-1.6-0.2
		c-1.1-0.5-2.2-1-3.2-1.6c-0.6-0.3-0.6-0.9-0.9-1.5c-0.6-1.4-1.6-2.8-1.4-4.4c0.3-2.4,0.5-4.7,0.8-7.1c0.3-2.3,0.4-4.6,0.8-6.9
		c0.5-2.8,1.1-5.7,1.6-8.5c0.3-1.7,0.7-3.4,1-5.2c0.1-0.7,0.4-1.6,0.4-2.3c0-0.6-0.2-1.4-0.2-2c0-0.4,0-1.4-0.2-1.8
		c-0.2-0.4-1-0.7-1.3-0.9c-0.7-0.5-1.3-0.9-2-1.4c-0.7-0.5-0.9-0.9-1.3-1.7c-0.8-1.5-1.6-3.1-2.5-4.6c-0.7-1.3-1.3-2.5-2-3.8
		c-0.4-0.8,0.3-2.2,0.5-3c0.1-0.4,0.1-1.3,0.4-1.6c0.4-0.5,0.8-1,1.2-1.5c0.9-1.1,1.6-1.7,1.4-3.3c-0.1-0.4-0.3-0.5,0-0.8
		c0,0-0.1-0.5,0-0.7c0.1-0.5-0.9-0.9-0.8-1.4c0.1-0.6,0.1-0.5-0.4-0.8c-0.3-0.2-0.3-0.2-0.7,0c-0.3,0.1-0.5,0.3-0.7,0.6
		c-0.1,0.1,0.2,0.5,0.3,0.6c-0.7,0.3-0.6,0.4-0.9-0.4c-0.1,0.4-0.8-0.3-1.2-0.3c-0.2,0-0.3,0.2-0.4,0.1c-0.2-0.2-0.4-0.3-0.6-0.5
		c-0.4-0.3-1.2-0.7-1.5-1.2c-0.2-0.4-0.1-1-0.4-1.3c-0.8-0.9-1.3-1.7-2.4-2c-0.8-0.2-2.3-0.3-2.9-1c-0.6-0.6-1.2-1.2-1.8-1.7
		c-0.4-0.4-0.9,0-1.4,0.2c-1,0.3-2.1-0.4-3.1-0.8c-0.8-0.3-1.6-0.6-2.4-1c-0.2-0.1-0.7-0.2-0.9-0.4c-0.5-0.5-1-1.1-1.6-1.6
		c-0.5-0.5-0.2-0.8,0-1.5c0.1-0.4-0.7-1.3-0.9-1.7c-0.3-0.4-0.5-0.7-0.8-1c-0.6-0.5-1.1-1-1.7-1.6c-0.1-0.1,0-0.5,0.1-0.6
		c0-0.2-0.3-0.4-0.4-0.6c-0.4-0.5-0.7-1-1.2-1.4c-0.4-0.3-0.9-0.5-1-1.1c-0.1-0.3-0.3-1.8-0.6-1.9c-0.5-0.2-1-0.5-1.6-0.7
		c0.2,0.6,0.3,1.7,0.7,2.2c0.6,0.7,1.1,1.2,1.4,2c0.2,0.5,0.3,0.6,0.7,0.9c0.3,0.2,0.4,0.6,0.5,1c0.1,0.4,0.3,0.7,0.3,1.2
		c0,0.6,0.3,0.2,0.5,0.3c0.2,0.2,0.6,0.5,0.6,0.9c-0.1,0.4-0.4,0.5-0.6,0.2c-0.4-0.7-1-1.1-1.7-1.5c-0.2-0.1-0.1-0.9-0.1-1.1
		c0-0.3-0.5-0.6-0.8-0.8c-0.2-0.2-0.5-0.1-0.7-0.3c-0.3-0.3-0.6-0.5-0.9-0.8c0.3,0,1.2-0.1,0.7-0.8c-0.4-0.6-0.6-0.9-1.2-1.2
		c-0.4-0.2-0.5-0.9-0.7-1.3c-0.3-0.7-0.6-1.4-0.8-2.1c-0.3-0.8-1.3-1.5-2.1-1.7c-0.6-0.2-0.8-0.1-1.1-0.7c-0.3-0.6-0.6-1.3-0.9-1.9
		c-0.4-1-1.3-1.5-1.6-2.6c-0.4-1.4-0.4-2.2-0.3-3.7c0.1-1.2,0.1-2.4,0.2-3.6c0.1-1.2-0.2-1.9-0.6-3c0.7,0.2,1.3,0.4,2,0.6
		c0-1,0.1-1.1-0.6-1.8c-0.5-0.5-0.9-0.9-1.5-1.3c-0.5-0.3-1-0.3-1.5-0.6c-0.9-0.4-1-0.4-1.4-1.3c-0.4-1.1-2-1.6-1.9-2.8
		c0.1-1.1,0-1-0.8-1.5c-0.1-0.1-0.6,1.1-1,0.5c-0.3-0.4-0.7-1.5-1.1-1.7c-0.6-0.3-0.7-0.4-1.1-1c-0.4-0.6-0.7-1.3-1.2-1.8
		c-0.4-0.4-1-0.7-1.4-1c-1.1-0.7-2-1.1-3.3-1.6c-0.5-0.2-1.1,0.2-1.5,0.1c-0.5-0.1-1.1-0.7-1.6-1c-0.6-0.4-0.8-0.5-1.5-0.5
		c-0.6,0.1-0.9,0.2-0.7,1c0.2,0.7-2.3,1.3-2.9,1.5c-0.1-0.3,0-0.5,0.3-0.6c-0.4-0.1-0.1-1.4,0.2-1.5c0.6-0.3,0.9-0.4,1.7-0.3
		c-0.2-0.1-0.3-0.3-0.5-0.4c0.2-0.1,0.4-0.3,0.6-0.4c-1.1,0.2-1.6,0.5-2.5,1.2c-0.8,0.6-1.1,1.3-1.7,2.2c0.3,0.1,0.5,0.1,0.8,0.2
		c-0.8,1-1.6,1.6-2.6,2.4c-0.5,0.4-2.1,0.8-2.2,1.5c-0.1,0.7-2.2,1.1-2.7,1.2c-0.2,0.1-0.5,0.1-0.7,0.1c-0.3,0-0.2,0.2-0.4,0.4
		c-0.5,0.3-0.9,0.4-1.4,0.3c0.5-0.5,1-0.6,1.6-1c0.4-0.3,1.7-1.5,2.1-0.8c0.3-0.5,1.3-1.6,1.8-1.2c-0.2-0.5,0.8-0.8,0.9-1.4
		c0.1-0.5,0.1-0.6,0.4-0.9c0.2-0.2,0.4-0.3,0.2-0.6c-0.7,0.4-1.4,1-2.1,0.5c-0.2-0.2-0.7-0.7-1-0.6c-0.4,0.2-0.7,0.3-1.1,0.5
		c-0.1-0.7-0.3-1.4-0.4-2.2c-0.2,0.1-1.1,0.8-1.2,0.7c-0.3-0.3-1-0.6-1.2-1c-0.3-0.4-0.3-1.3-0.4-1.8c-0.1-0.4,0.2-0.7,0.4-1.1
		c0.4-0.7,0.4-0.9,1.1-0.8c0.6,0.1,0.7-0.4,1.2-0.7c0.5-0.2,1,0.2,1.2-0.5c0.2-0.5-0.1-0.6-0.5-1c0.2-0.1,0.3-0.2,0.5-0.3
		c-0.2-0.7-0.8-0.1-1.2,0.2c-0.5,0.3-0.6-0.1-1.1,0c-1,0.1-2.1,0.3-2.7-0.8c0.1,0,0.2-0.2,0.4-0.2c-0.5-0.2-1.2-0.2-1.5-0.7
		c0.7-0.4,1.2-0.7,2-0.7c-0.1-0.1-0.1-0.1-0.2-0.2c0.6-0.4,1-0.4,1.7-0.5c0,0.8,0.6,0.7,1.2,0.8c0.5,0.1,0.7-0.1,1.2-0.4
		c-0.2-0.1-0.4-0.2-0.7-0.3c0.1,0,0.2-0.1,0.3-0.1c-0.2-0.2-0.3-0.4-0.1-0.6c-0.6-0.1-1.1-0.1-1.6-0.3c-0.4-0.2-0.4-0.9-0.9-1.1
		c-0.3-0.1-1.6-0.5-1.7-0.8c-0.1-0.1,0.2-0.7,0.3-0.9c0-0.1,0.3-0.1,0.4-0.1c0.5,0,1.2,0.1,1.5-0.3c0.4-0.5,0.7-1,1.1-1.4
		c0.8-0.7,1.8-1.1,2.8-1.3c0.6-0.1,1.2-0.1,1.7-0.5c0.7-0.6,0.7-0.6,1.5-0.2c0.7,0.4,2.7-0.1,3,0.7c0.2,0.6,2.3,0.6,3,0.7
		c1,0.1,2.1,0.3,3.1,0.4c1.5,0.3,3,0.5,4.5,0.8c1,0.2,1.9,0.8,2.9,1.2c0.2,0.1,1.2-1.2,1.4-1.4c0.3-0.3,0.8,0.6,1.2,0.4
		c0.5-0.2,3-1.7,3.3-1.1c-0.9,0.5-1.8,0.9-2.6,1.4c0.7,0.5,2.9-1.5,3.1-0.7c0.3-0.3,0.5-0.6,0.8-0.9c0.2-0.2-0.3-0.3,0.1-0.6
		c0.7,0.8,1.3,1.5,2.1,2.2c0.2-0.8,0.3-1,0.9-1.5c0.3,0.4-0.3,0.5,0.2,0.8c0.2,0.1-0.1,0.5-0.2,0.6c0.3-0.1,0.8-0.1,1.1-0.3
		c0.1-0.1-0.1-0.4,0.1-0.4c0.2,0,0.3-0.1,0.5-0.1c0.6-0.1,1.4,0.5,1.9,0.7c1.1,0.5,2.4,0.7,3.6,1c0-0.1-0.1-0.2-0.1-0.3
		c0.7,0,1.1,0.4,1.8,0.8c0.5,0.3-1,0.8-1.1,0.9c0.5,0.2,1,0.4,1.5,0.4c0.9-0.1,1.7-0.1,2.6-0.2c0.4,0,1.1-0.1,1.4,0.3
		c0.4,0.6,0.8,1.2,1.2,1.7c-0.1-0.3-0.1-0.5-0.2-0.8c0-0.2,0.1-0.3,0.1-0.4c-0.1-0.6-0.4-0.5,0-1c0.2-0.4,2-0.4,1.6-1
		c-0.8,0.3-1.5,0.6-2.4,0.6c0.2-0.8,0.5-0.7,1.2-0.9c0.7-0.2,0.8-0.3,1.5,0.1c0.2,0.1,0.3,0.5,0.4,0.7c0.1,0.3,0.3,0.2,0.6,0.3
		c0.6,0.1,1,0.3,1.6,0.5c0.4,0.2,2.9,0.4,3,0.1c0.2-0.7,0.2-1,1-1c0.5,0,1,0.3,1.5,0.4c-0.1,0.2-0.4,0.9-0.3,1.1
		c0.1,0.2,0.7,0.5,0.9,0.6c-0.2-0.8-0.5-1.5,0.4-1.6c0.4-0.1,0.6-0.4,0.9-0.7c0.2-0.2,0.1-0.5,0-0.8c-0.3,0.1-0.5,0.2-0.7,0.4
		c-0.1-0.8,0.5-0.9,1-0.9c0-0.6-0.6-0.2-1-0.3c-0.3-0.1-1.3-0.3-1.4-0.6c-0.3-0.7-0.3-1.1-0.2-1.8c0-0.7,0.3-0.8,0.9-0.6
		c0.1-0.3-0.1-0.5-0.4-0.4c0.5-0.3,0.6-0.3,0.6-0.9c0-0.6,0-0.8-0.3-1.3c-0.2-0.4-0.1-0.9,0-1.4c0-0.3,0.6-0.2,0.8-0.1
		c-0.9-1,0.7-0.7,1.4-0.7c0.9,0,1.5,0.1,2.4,0.3c-0.4,0.5-0.9,1.7-1.4,2c-0.5,0.3-1.6,0-2.1,0c1.6,0.2-0.2,1.2-0.1,1.8
		c0.8-0.1,1.2,0.6,1.4,1.3c0.1,0.5,0.9,1.1,1.2,1.5c-0.4,0.3-0.8,0.5-1.2,0.8c0.4,0.1,0.7,0.4,1,0.2c0.4-0.3,0.7,0.1,1.1,0.2
		c-0.2,0.1-0.4,0.3-0.6,0.4c0.4,0.3,0.6,0.3,0.4,0.8c-0.1,0.5-0.2,0.6,0.2,0.9c0.3-0.4,0.4-0.6,0.5-1.1c0-0.2,0.2-0.9,0.5-0.7
		c0.2,0.1,0.9,0.4,1,0.7c0.1,0.4,0.4,0.9-0.2,1.1c0-0.1-0.1-0.2-0.1-0.3c-1.1,0.6,1.3,2.8,1.4,1.6c0-0.3,0-0.5,0.2-0.7
		c0.1-0.1,0.5-0.3,0.5-0.5c0-0.9,0-0.8,0.7-1.2c-0.3-0.5-0.6-0.7-0.5-1.2c0.1-0.6,0.4-0.4,0.9-0.3c0.3,0.1,1.2,0,1.4,0.3
		c0.4,0.5,0.6,0.6,1.1,0.7c-0.3,0.5,0.2,0.8-0.1,1.1c-0.2,0.2-0.7,0.1-1,0.1c0.2,0.5,0.4,0.9,0.7,1.2c0.4,0.4,0.6,0.7,0.1,1.2
		c-0.3,0.4-1,0.6-1.3,0.8c-0.4,0.2-0.6-0.3-0.9-0.5c0.2,0.3,0.3,0.7,0.5,1c-0.2-0.1-0.5-0.2-0.7-0.4c0,0.1,0.1,0.2,0.1,0.3
		c-0.2-0.1-0.5-0.1-0.7-0.2c-0.2,0,0-0.4-0.2-0.4c-0.4,0-0.9-0.1-1,0.3c0.2,0.1,0.4,0.3,0.7,0.4c-0.2,0.4-0.4,0.8-0.8,1
		c-0.5,0.3-0.7,0-1.3-0.2c-0.8-0.4-1.6-0.4-2.5-0.4c0.7,0.3,1.3,0.7,2,1c0.5,0.2,1.3,0.2,1.8,0.2c-0.2,0.4-0.6,1.3-0.9,1.5
		c-0.2,0.1-0.5,0.3-0.7,0.3c-0.3,0-0.5-0.1-0.8,0c-0.7,0.5-0.8,0.5-1.6,0.3c-0.5-0.2-1-0.3-1.6-0.4c0.3,0.2,0.7,0.3,1,0.5
		c-0.1,0.1-0.1,0.2-0.2,0.2c0.5-0.1,0.6-0.1,1.1,0.2c0.3,0.1,0.7,0.5,0.2,0.7c-0.5,0.2-0.7,0.2-1.2,0.2c-0.2,0-0.4,0.6-0.5,0.7
		c-0.4,0.7-1.1,1.4-1.2,2.1c-0.2,0.9-0.4,1.8-0.6,2.7c0.4,0.1,1.1,0.1,1.4,0.3c0.3,0.3,0.5,1.3,0.6,1.7c0.3,0.7,0.4,0.5,1.1,0.3
		c0.4-0.1,0.8,0.2,1.1,0.3c1.1,0.4,1.8,0.7,2.7,1.4c0.3,0.2,0.9,0.8,1.2,0.8c0.5,0.1,1,0.1,1.6,0.2c0.2,0,1.2,0,1.2,0.2
		c0,0.7-0.1,1.4-0.1,2.2c0,1,1,1.8,1.5,2.5c0.6,0.7,1.8-0.6,1.7-1.2c-0.1-0.6-0.2-1.3-0.3-1.9c-0.1-0.3-0.5-0.8-0.7-1.1
		c0.6-0.4,1.9-0.9,2.3-1.5c0.4-0.6,0.5-2.1,0-2.6c-0.3-0.3-0.7-0.6-1-1c-0.4-0.6-0.5-0.5,0-1c0.6-0.5,0.6-0.4,0.4-1.2
		c-0.1-0.4-0.4-0.9-0.2-1.3c0.2-0.7,0.2-0.9,0-1.6C92,86.2,92.3,86,92.8,86c0.9-0.1,1.6,0.6,2.5,0.2c0.5-0.2,0.7,0,1.2,0.4
		c0.2,0.2,0.9,0.5,1,0.8c0.1,0.5,0.4,0.8,0.9,0.8c0.4-0.1,0.7,0.1,1.1,0.3c-0.2,0.4-0.4,0.5-0.3,0.9c0.1,0.4,0.2,0.8,0,1.2
		c0.1,0,0.2,0,0.3,0c-0.2,0.3-0.8,0.7-0.5,1c0.5-1.6,2.5,1.9,2.9-0.3c0.1,0.1,0.3,0.1,0.3,0.2c0.2-0.5,0.6-0.9,0.5-1.5
		c-0.1-0.4,0.5-1.1,0.8-1c0,0.2-0.1,0.4-0.1,0.6c0.9,0,1.4,1.8,1.8,2.5c0.2,0.4,0.9,1.2,0.9,1.6c0,0.2-0.4,0.6-0.4,0.8
		c0,0.1,0.4,0.4,0.5,0.4c0.2,0.2,0.6,0.3,0.7,0.6c0.2,0.3-0.1,0.5,0.2,0.6c0.7,0,0.9,0,1.5,0.4c0.4,0.3,1.1,0.6,0.3,0.7
		c-0.5,0.1-0.9,0.3-1.3,0.4c0.3,0.1,0.6-0.1,0.9-0.2c-0.2,0.4-0.8,0.4-1.2,0.5c-0.4,0.1-0.2,0.8,0,0.6c0.2-0.2,0.3-0.2,0.5-0.3
		c0.2-0.1,0.1-0.2,0.3-0.3c0.3-0.2,0.7-0.3,1-0.3c-0.2,0-0.3-0.1-0.4-0.2c0.3,0,0.8,0,0.9,0.3c0.1,0.4-0.3,0.4-0.1,0.7
		c0.3-0.5,0.6-0.3,1.1-0.1c0.4,0.1,0.1,0.8,0,1c-0.2,0.4,0.3,0.5,0,1c-0.1,0.2-0.8,0.6-1,0.6c-0.4,0.1-0.7,0-1.1,0.1
		c-0.4,0.1-0.6,0.4-0.9,0.7c-0.6,0.7-1.1,0.8-2,0.7c-0.9-0.1-1.8-0.1-2.7-0.1c-0.8,0-1.6-0.2-1.9,0.9c-0.1,0.3-0.8,0.4-1.1,0.5
		c-0.4,0.2-0.7,0.7-1,1c-0.5,0.6-0.8,1.3-1.5,1.7c1.1-0.5,1.7-1.7,2.8-2.2c0.7-0.4,2.8-1.5,3.3-0.2c-0.1,0-0.2-0.1-0.3-0.1
		c0.5,0.4-0.2,0.6-0.5,0.9c-0.4,0.3-0.6-0.2-1,0.1c0.2,0,0.6,0.5,0.6,0.5c0.3-0.1,0.5-0.1,0.7,0c-0.1,0.3-0.2,0.6-0.5,0.8
		c0.1,0,0.3,0,0.4,0c-0.2,0.6,0.4,1,0.8,1.1c0,0-0.1,0.1-0.1,0.1c0.6,0.3,1.2,0.6,1.8,0.2c0,0.1,0,0.2,0.1,0.3
		c0.1,0,0.3-0.1,0.4-0.1c-0.4-0.5,0.4-1.2,0.6-1.6c0.5,0.2,0.2,0.6,0.1,1c0.4-0.3,0.9,0.3,0.6,0.4c-0.4,0.2-0.8,0.4-1.2,0.3
		c0.1,0.1,0.2,0.2,0.2,0.3c-0.5,0.2-1,0.4-1.5,0.6c-0.2,0.1-0.4,0.1-0.6,0.3c-0.2,0.2-0.3-0.3-0.5-0.1c-0.3,0.3-0.7,0.8-1,1.2
		c-0.3,0.2-0.5-0.1-0.7-0.2c-0.5-0.8,0.8-1.4,1.2-1.8c0.3-0.2,0.2,0,0.3,0.2c0.3,0.3,0.5-0.1,0.7-0.3c-0.3,0-0.8-0.1-1.1,0.1
		c0-0.2,0.2-0.4,0.3-0.6c-0.4-0.1-0.9,0.4-1.2,0.6c-0.2,0.1-0.2-0.2-0.5,0.1c-0.1,0.1-0.4,0.1-0.6,0.1c0.3,0.8-1.2,0.5-1.3,0.9
		c-0.1-0.1-0.1-0.1-0.2-0.2c-0.2,0.4-0.4,0.5-0.8,0.7c-0.3,0.1-0.3,0.3-0.4,0.6c-0.2,0.4-1,1.9,0.1,1.8c0-0.1-0.1-0.1-0.1-0.2
		c0.1,0.1,0.2,0.2,0.2,0.3c-0.3,0.2-0.7,0-1.1-0.1c-0.2,0-0.1,0.5-0.4,0.5c-0.8,0.1-1.2,0.1-1.9,0.6c0.5-0.1,0.9-0.3,1.4-0.4
		c-0.1,0-0.1,0.1-0.2,0.1c0.1,0,0.3,0,0.4,0c-0.3,0.2-0.6,0.3-0.9,0.4c-0.3,0-0.8-0.1-1,0.2c0.8,0.1-0.3,1.5-0.6,1.8
		c0.2-0.3-0.4-0.5-0.5-0.9c0,0.4,0.6,1,0.4,1.4c-0.2,0.4-0.6,0.9-0.7,1.3l-0.1,0c0-0.3,0.1-0.6,0.3-0.8c-0.2-0.1-0.1-0.5-0.5-0.4
		c0.1-0.3,0.1-0.6,0.2-0.9c0,0,0.3-0.6,0-0.4c-0.6,0.5-0.5,0.8-0.3,1.6c-0.2-0.1-0.4-0.3-0.6-0.3c0.2,0.2,0.6,0.3,0.7,0.5
		c0.1,0.2-0.1,0.7-0.1,0.9c0.1,0.3,0.5,0.2,0.4,0.7c-0.1,0.4-0.4,0.4-0.7,0.5c0.3,0,0.9-0.1,0.8,0.4c0,0.2-0.7,0.2-0.9,0.2
		c0.1,0.1,0.2,0.2,0.3,0.2c-0.1,0-0.2,0.1-0.4,0.1c0.2,0.4,0.4,0,0.6,0.2c-0.2,0.1-0.4,0.2-0.5,0.3c-0.1,0.1-0.3-0.2-0.5-0.1
		c-0.2,0.1-0.4,0.6-0.6,0.9c-0.1,0.2-0.5,0.1-0.7,0.3c-0.2,0.2-0.3,0.5-0.6,0.7c-0.9,0.5-1,0.7-1.5,1.7c-0.2,0.4-0.1,1.2,0.1,1.7
		c0.4,0.8,0.6,1.5,0.9,2.3c0.1,0.4,0.2,1.6-0.1,1.9c-0.2,0.2-0.4,0.6-0.7,0.2c-0.1-0.1-0.6-0.6-0.6-0.6c-0.1-0.4-0.2-0.6-0.4-0.9
		c-0.2-0.3-0.3-0.5-0.2-0.9c-0.1,0.1-0.1,0.1-0.2,0.2c-0.2-0.5,0.3-1.3-0.2-1.6c-0.5-0.3-0.7-0.9-1.2-0.8c-0.3,0.1-0.6,0.3-0.9,0.1
		c-0.2-0.2-0.5-0.5-0.8-0.5c-0.5-0.1-1.3,0.5-1.4-0.3c-0.1,0.7-1.6,0.2-2.1,0.6c0.3,0,1.5,0.2,0.6,0.6c0.1,0,0.6,0.2,0.6,0.3
		c0.1,0.2-0.2,0.3-0.3,0.3c0.1-0.3-0.3-0.4-0.6-0.6c0,0.2,0,0.3-0.1,0.5c-0.2-0.4-0.4,0-0.7-0.2c-0.4-0.3-0.5-0.5-1-0.4
		c-0.2,0.1-0.6-0.1-0.8-0.2c-0.4-0.2-1.1,0.3-1.5,0.5c-0.7,0.3-2.3,1.5-2.3,2.5c0,0.3,0.4,0.6,0.4,0.9c0,0.2-0.2,0.5-0.2,0.7
		c-0.1,0.5-0.4,1.1-0.4,1.7c0,1.4,0.2,2.4,1,3.6c0.5,0.7,0.6,1.2,1.4,1.4c0.2,0.1,0.4,0.4,0.5,0.4c0.3-0.1,0.6-0.2,0.9-0.4
		c0.3-0.1,0.5-0.2,0.8-0.2c0.2,0,0.4,0.3,0.5,0.2c0.1-0.1,0.3-0.1,0.4-0.2c0.1-0.1-0.1-0.3,0-0.3c0.3-0.2,0.4-0.3,0.5-0.7
		c0.2-0.6,0.1-1.3,0.8-1.6c0.3-0.1,1.1-0.3,1.4-0.3c0.4,0,1.4-0.2,1.1,0.6c-0.1,0.3-0.5,1.2-0.8,1.2c0.1,0.1,0,0.2,0.3,0.2
		c-0.1,0.1-0.2,0.2-0.3,0.3l0,0.1c0,0,0.1-0.1,0.1-0.1c-0.2,0.4-0.2,0.7-0.3,1.1c-0.2-0.2-0.2-0.4-0.2-0.6c-0.1,0.1-0.2,0.3-0.3,0.4
		c0.5,0-0.1,0.9,0.1,1.3c0.1,0.3-0.4,0.9-0.6,1.1c0.7,0.2,1.3,0.1,2.1,0.2c0.3,0,0.5-0.2,0.8-0.2c0.3,0,0.8,0,1.1,0.2
		c0.6,0.3,1,0.7,0.9,1.5c-0.1,0.5-0.2,0.9-0.2,1.4c0,0.3-0.3,0.5-0.3,0.8c-0.2,1.3,1.4,3.4,2.6,2.9c0.7-0.3,1.1-0.6,1.8-0.4
		c0.7,0.2,1,0.6,1.6,1.2c0-0.9,1.1-2.1,1.5-2.9c0.1-0.2,1-0.4,1.2-0.4c0.6-0.2,1.2-0.4,1.8-0.7c0.6-0.2,1.6,0.3,2.1,0.4
		c1.5,0.3,2.9,0.7,4.3,1c0.8,0.2,1.6,0.2,2.2,0.8c1.1,1.1,2.3,2.2,3.4,3.3c0.7,0.7,2.3,0.7,3.2,0.9c0.8,0.2,1.5,1.6,2.1,2.3
		c0.5,0.7,1.1,1.4,1.6,2.1c0.1,0.2,0.4,0.7,0.6,0.8c1.2,0.4,2.3,0.8,3.5,1.3c1.2,0.4,2.3,0.8,3.5,1.3c1,0.4,2,1.4,2.8,2
		c0.2,0,1.2,0,1.3,0.2C128.4,159.4,128.5,159.9,128.6,160.4L128.6,160.4z M91.2,110.8L91.2,110.8c0,0.4-1.2,0.7-1.5,0.6
		c-0.5,0-0.6,0-1,0.4c-0.3,0.2-0.4,0.5-0.8,0.3c0-0.3,0.3-0.4,0.5-0.5c-0.1-0.2-0.2-0.1-0.2-0.3c-0.3,0.4-0.5,0.7-0.7,1.1
		c0.2,0.1,0.4,0.1,0.6,0.2c0,0.1-0.1,0.1-0.1,0.2c0.8,0.1,1.1-0.3,1.8-0.6c0.7-0.2,1.1-0.5,1.7-1C91.4,111,91.4,110.9,91.2,110.8
		L91.2,110.8z M92.2,110.5L92.2,110.5c0.6,0.6,1.9-0.5,1.2-0.8c0.2-0.2,0.4-0.3,0.5-0.5c-0.4,0.1-1.1,0.7-1.4,0.6
		c-0.5-0.2-1.1,0.1-1.6,0.2C90,111.4,91.8,110.1,92.2,110.5L92.2,110.5z M80.2,106.5c0.3-0.3,0.7-0.7,1-1c0.4-0.2,0.8-0.3,1.1-0.5
		c0.3-0.1,0.1-0.6,0.6-0.6c0,0.1-0.1,0.2-0.1,0.3c0.3-0.1,0.2-0.4,0.5-0.6c0,0.2-0.1,0.3-0.2,0.4c0.3-0.2,0.5-0.4,0.2-0.6
		c0.3,0,0.6,0.2,0.9,0.3c0.2,0.1,0.5-0.3,0.7,0.1c0.4,0.7,0.4,1,1.3,0.9c-0.2,0.6,0.1,0.4,0.3,0.8c0,0.1-0.2,0.2-0.1,0.4
		c0.1,0.1,0.2,0.2,0.1,0.4c-0.1,0.2,1.1,0.5,1.3,0.5c0.6,0.1,1.3,0.1,1.8,0.3c0.7,0.1,0.6,1,1,1.4c-0.4-0.2-0.2,0.2-0.3,0.2
		c-0.2,0.1-0.6-0.2-0.8,0c0-0.1,0-0.1-0.1-0.2c0.1-0.1,0.1-0.1,0.1-0.2c-0.4,0-0.2-0.5-0.6-0.3c0.6,0.3,0.2,0.8,0,1.2
		c-0.1,0.2,0,0.6-0.1,0.7c-0.2,0.2-0.4,0.4-0.6,0.7c-0.1-0.3-0.1-1.2-0.4-1.2c-0.2,0-0.8,0.6-0.9,0.3c0-0.1,0.3-0.5,0.4-0.6
		c0.3-0.2,0.2-0.6,0-0.9c0.1,0,0.1,0,0.1,0c-0.1-0.5-0.5-0.4-0.8-0.6c-0.2-0.2-1-0.3-0.6,0.2c-0.5,0-0.4,0.5-0.6,0.7
		c0-0.1,0-0.3,0-0.5c-0.2,0.5-0.9,0.7-0.7,1.5c0.1,0.8,0.3,1.3-0.1,2c-0.7,1.4-1.1-0.4-1.1-1.1c0-0.5,0.2-1,0.3-1.4
		c0.1-0.3,0.4-0.8,0.4-1.1c-0.3,0.2-0.4,0.8-0.8,0.8c0.1-0.4,0.6-1.2,0.9-1.5c0,0.1,0,0.2,0,0.2c0.1-0.1,0.2-0.1,0.3-0.2
		c0,0.1-0.1,0.1-0.1,0.2l0.1,0.1c0.3-0.5,1.1-0.8,1.6-0.3c0.1-0.4,0.4-0.2,0.7-0.1c-0.2-0.2-0.2-0.5-0.4-0.6c-0.2-0.1-0.6,0-0.5-0.4
		c-0.2,0-1.4,0.5-1.5,0.4c-0.3-0.2-0.5,0-0.7-0.3c-0.2-0.3-0.5-0.3-0.8-0.1c0.1-0.3,0.4-0.6,0.6-0.7c-0.6-0.5-1.9,1.2-2.7,0.8
		c0-0.1,0.1-0.2,0.1-0.2C80.9,106.5,80.5,106.7,80.2,106.5L80.2,106.5L80.2,106.5z M58.5,80.1L58.5,80.1c-0.1,0-0.2-0.1-0.3-0.1
		c0.1-0.1,0.2-0.2,0.3-0.3c-0.4-0.1-0.7,0.4-1.1,0.5c-0.5,0.1-0.8,0.1-1.2-0.1c0.1-0.4,0.8-0.5,1.1-0.7c-0.7-0.3-0.9-0.3-1.6-0.1
		c-0.4,0.2-0.9,0.3-1.3,0.5c-0.5,0.2-1,0.2-1.5,0.4c-0.2,0.1-1.3,0.1-0.5,0.6c0.1,0,0.2-0.1,0.2-0.2c0-0.1-0.1-0.1-0.1-0.2
		c0.3-0.1,1.1-0.1,1.5,0c0-0.1,0-0.1-0.1-0.2c0.5-0.1,1.1,0,1.5,0.3c-0.2,0.4-0.9,0.1-1.3,0.2c0.2,0.1,0.3,0.2,0.4,0.4
		c-0.2,0.1-0.4,0.2-0.6,0.3c0.3,0.4-0.2,0.4-0.5,0.5c0.4,0.3,0.8,0.1,1.1,0.2c0.3,0.1,0.6-0.5,0.8-0.7c0.4-0.3,1.1-0.1,0.5,0.3
		c-0.2,0.1-0.3,0.3-0.4,0.4c-0.1,0.1-0.3,0.1-0.4,0.2c0.5,0.5,1.1-0.9,1.7-0.7c-0.1-0.2-0.3-0.4-0.5-0.4c0.5-0.6,1.6,0.3,1.9-0.3
		c-0.1,0-0.2,0-0.3,0c0-0.4,0.3-0.2,0.4-0.4C58.3,80.5,58.4,80.3,58.5,80.1L58.5,80.1z M65.8,85.6L65.8,85.6c-0.6-0.2-1.5-0.4-2,0
		c-0.2,0.2-0.3,0.5-0.5,0.6c-0.3,0.3-0.4,0.4-0.8,0.4c-0.4,0-1,0-1.1-0.5c0-0.1-0.7,0-0.9-0.3c0-0.1-0.6-0.3-0.7-0.3
		c-0.1,0.1,0.6,0.4,0.7,0.4c-0.2,0.5,0.9,0.9,0.2,1c-0.2,0.1-0.4-0.1-0.5,0.1c-0.2,0.2-0.1,0.3-0.4,0.4c0,0,0.1,0.1,0.1,0.1
		c-0.2,0.2-0.5,0-0.8,0c0,0,0,0.1,0,0.1c-0.3,0-0.5-0.1-0.8-0.1c0.4,0.5,1.3,0.6,1.8,0.7c0.4,0.1,1.7-0.1,1.5-0.6
		c0.4-0.4,0.7-0.3,1.2-0.5c0.3-0.1,0.5-0.5,0.8-0.7c-0.1,0-0.1,0-0.2,0c0.3-0.3,0.5-0.4,0.8-0.5c0.3-0.1,0.5,0.1,0.7-0.2
		c-0.2,0.1-0.3,0.1-0.5,0c0.2-0.1,0.4-0.1,0.6-0.2c-0.2,0-0.4,0-0.6-0.1c0.2,0,0.3,0,0.5,0c-0.6-0.2-1,0.2-1.6,0.5
		c0.2-0.7,1.9-1,2-0.3C65.6,85.8,65.7,85.7,65.8,85.6L65.8,85.6z M75.3,100.4L75.3,100.4c0.1-0.4,0-0.2,0.2-0.3c0,0.1,0,0.2,0,0.3
		c0.1-0.1,0.1-0.1,0.1-0.2c0.3,0.1,0.2,0.5,0.2,0.7c0.1-0.2,0.2-0.3,0.4-0.2c0.1,0.1-0.1,0.4-0.1,0.6c0.1-0.1,0.2-0.1,0.3-0.2
		c-0.3,0.2-0.4,0.7-0.3,1c0.1,0.4,0.3-0.1,0.3-0.3c0.1,0,0.2,0,0.2,0.1c-0.2-0.3,0.1-0.7-0.1-0.9c-0.2-0.2-0.4-0.7-0.5-1
		c-0.2-0.4-1-2.3-0.6-2.5l-0.1,0c-0.1,0.2-0.1,0.1-0.3,0.2c0-0.2,0.2-0.3,0.4-0.4c0,0-0.2-0.1-0.2-0.2c-0.3,0.5-0.3,0.6,0.1,0.9
		c-0.3-0.1-0.9-0.4-1,0.1c-0.2,0.8-0.1,0.7,0.5,0.8c-0.7,0.2,0.2,1,0.3,1.3C75.1,100.3,75.2,100.3,75.3,100.4L75.3,100.4z
		 M17.4,89.2L17.4,89.2c-0.6-0.2-0.9,0.2-1.5,0.1c0.3,0.4,0.6,0.5,1,0.6c0.1-0.2,0.3-0.2,0.5-0.2c0,0,0-0.1,0-0.1
		C17.5,89.4,17.3,89.4,17.4,89.2L17.4,89.2z M51.9,70.9L51.9,70.9c0.5,0.3,1,0.4,1.3,0.9c0.6,0.7,0.6,0.7,1.4,0.3
		c0.1-0.1,0.3-0.1,0.4-0.2c0.1-0.1,0.1,0.2,0.2,0.2c0.3-0.1,0.5-0.2,0.8-0.4l0.2-1.2c0.4,0.2,0.8-0.1,0.9-0.5
		c0.1-0.4,0.3-0.3,0.6-0.5c0.7-0.3,1.8-0.5,2.3-1c0.4-0.3,0.3-0.5-0.1-0.8c-0.3-0.2-0.6-0.5-0.9-0.6c-0.7-0.3-1.4-0.5-2,0.1
		c0-0.1,0-0.2,0.1-0.3c-0.8,0.2-1.5-0.7-2.2-0.6c-0.9,0.1-1.7,0.2-2.6,0.4c0.1,0.3,0.8,1.1,0.6,1.2c-0.3,0.3-1,0.9-0.6,1.3
		c-0.8,0.1-0.2,0.4-0.5,0.7c-0.2,0.3-0.6,0.6-0.5,1.1C51.6,71,51.7,71,51.9,70.9L51.9,70.9z M55.2,63.8c-0.3,0-0.6-0.1-0.9-0.1
		c-0.5-0.7,0-0.9,0.6-1c0.4-0.1,1-0.8,1.3-1.1c0.5-0.4,0.7-0.7,1.3-0.7c0.2,0,0.5-0.1,0.8-0.1c0.3,0.1,0.6,0.3,0.8,0
		c-0.1,0-0.2-0.1-0.3-0.2c0.6-0.2,0.8,0,1.4,0.3c-0.4,0.1-1.2,0.6-0.3,0.7c-0.1,0-0.4,0-0.5,0.1c0.7,0.4-0.3,1.1-0.7,1.2
		c-0.6,0.2-1.2-0.5-0.6-0.9c-0.1-0.1-0.5-0.2-0.5,0.1c0,0.5-0.3,0.3-0.5,0.4c0.2,0.1,0.4,0.3,0.2,0.5c-0.3,0.4-0.5-0.3-0.7-0.2
		c-0.3,0.1,0.2,0.5,0,0.7c-0.2,0.2-0.5,0.2-0.7,0.3c0.1-0.4-0.3-0.8-0.5-0.5C55.4,63.5,55.6,63.8,55.2,63.8L55.2,63.8L55.2,63.8z
		 M61.8,60L61.8,60c-0.6-0.5-0.6-0.6-1.3-0.3c0.2,0.2,0.5,0.3,0.7,0.5C61.5,60.1,61.6,60,61.8,60L61.8,60z M28.1,92.3L28.1,92.3
		c0.3,0.2,0.7-0.1,0.8-0.3c0,0,0.1,0.1,0.1,0.1c0-0.1,0.1-0.1,0.1-0.2c-0.2-0.1-0.4-0.2-0.6-0.2C28.3,91.8,28.1,92,28.1,92.3
		L28.1,92.3z M46.3,97.8L46.3,97.8c0-0.5-1.2-0.3-1.2-0.2c-0.1,0.6,1.3,2.9,1.7,2.4c-0.1-0.1-0.3-0.2-0.4-0.4
		C46.4,98.9,46.3,98.4,46.3,97.8L46.3,97.8z M27.4,92.9L27.4,92.9c-0.8-0.5-0.9,1.1-0.1,1.1c0.2,0,0.4-0.4,0.7-0.4
		c0.3,0,0.5-0.2,0.5-0.5c0.2,0.1,0.3,0,0.4-0.2c-0.1,0-0.2,0-0.2-0.1C28.9,92.3,27.4,92.3,27.4,92.9L27.4,92.9z M53.1,103.8
		L53.1,103.8c-0.1-0.2-0.4-0.2-0.6-0.3c-0.3-0.1-0.3-0.3-0.5-0.5c-0.4-0.8-0.6-0.6-1.4-0.9c-0.6-0.2-0.8-0.5-1.5-0.3
		c1.1,1.3,2.2,2,3.6,2.8C53.6,104.9,53.5,104.6,53.1,103.8L53.1,103.8z M201.1,166.3L201.1,166.3c0.2,1,0.5,1.8,0.2,2.7
		c-0.1-0.1-0.3-0.3-0.4-0.4c0.1,1.2,0,1.8-0.3,2.9c-0.5,1.7-1,3.4-1.5,5.1c-0.1,0.5-0.3,0.9-0.4,1.4c0,0.1-1.1,0.4-1.3,0.5
		c-0.2,0.1-1.3-0.3-1.3-0.5c-0.1-0.6-0.2-1.2-0.3-1.8c-0.2-0.6-0.3-1.1-0.1-1.8c0.2-0.6,0.8-1.1,0.9-1.7c0.1-0.5-0.3-1.4-0.4-1.9
		c-0.1-0.3,0.2-1.4,0.4-1.5c0.7-0.1,1.1-0.3,1.7-0.6c0.5-0.3,0.7-0.7,1.2-1.2c0.5-0.6,0.8-0.6,0.8-1.4
		C200.2,164.9,200.9,166,201.1,166.3L201.1,166.3L201.1,166.3z M260.7,138.5c0.1,0.1,0.3,0.2,0.4,0.4c0.1-0.3-0.2-0.4-0.2-0.7
		c0.1-0.5,0.2-1,0.3-1.6c0-0.2,0.4-0.3,0.6-0.3c0.6,0.1,0.3,0.4,0.9,0.1c0.2,0.4-0.2,0.6-0.1,0.9c0.1,0.6,0.4,0.3,0.2,1
		c0,0.2-0.1,0.4-0.2,0.5c-0.1,0.1-0.4-0.1-0.4,0.1c0,0.6-0.4,0.4-0.1,1c0.2,0.3,0,0.8,0.4,0.8c0.2,0,0.2-0.3,0.4-0.3
		c0.2,0,0.3,0.1,0.5,0.2c0.2,0.1,0.3,0.3,0.5,0.3c0.1,0,0.2-0.3,0.3-0.2c0.4,0.4,0.1,0.6-0.3,0.4c0,0.5,0.6,0.4,0.3,1
		c-0.2-0.1-0.7-0.3-0.7-0.5c0-0.5-0.1-0.5-0.6-0.7c0,0.2-0.1,0.5-0.1,0.7c-0.1-0.2-0.2-0.4-0.4-0.5c-0.5-0.3-0.3,0-0.7,0
		c-0.4-0.1-0.8-0.6-0.3-0.9c-0.3-0.1-0.7-0.1-0.7-0.5C260.8,139.4,260.5,138.9,260.7,138.5L260.7,138.5L260.7,138.5z M262.2,131.2
		c-0.2,0.7-0.4,1.2-0.7,1.8c-0.3-0.5-0.8-0.9-0.6-1.6c0.1-0.6,0.5-1.3,1-1.5C262.8,129.5,262.3,130.7,262.2,131.2L262.2,131.2
		L262.2,131.2z M260.3,143.1c0.1,0.1,0.2,0.1,0.3,0.2c-0.1,0.2,0.1,0.7,0.1,0.8c-0.2,0.1-0.7,0.4-0.7,0.6c-0.1,0.8-0.8,1-1.4,1.4
		c0.3-0.6,0.6-1,1.1-1.5C260,144.2,260.1,143.9,260.3,143.1L260.3,143.1L260.3,143.1z M265.9,145.3c0.2-0.1,0.3,0.2,0.3,0.4
		c-0.1,0.1-0.1,0.1-0.2,0.2c0.1,0,0.1,0.1,0.2,0.1c0,0.1,0,0.2,0,0.3c0.4,0,0.1,1,0,1.3c0,0-0.1-0.1-0.1-0.1c0,0.2,0,0.4,0,0.6
		c-0.2-0.3-0.1-0.7-0.3-1c-0.5,0.4-0.2,0.6-0.1,1c0.1,0.6-0.5,0.8-0.3,0.2l-0.1,0c-0.1,0.5-0.9-0.1-1-0.4c-0.2-0.5,0.4-1.3-0.5-1.2
		c0,0.1,0,0.3,0,0.4c-0.2-0.1-0.2-0.1-0.2-0.3c-0.1,0.1-0.2,0.1-0.2,0.3c-0.2-0.9-0.5,0.3-0.7,0.5c-0.4-0.6,0.3-1.1,0.7-1.2
		c0.2-0.1,0.1-0.6,0.5-0.6c0.4,0,0.4,0.4,0.2,0.7c0.4-0.1,0.5-0.8,0.9-0.5c0-0.3,0.1-0.5,0.3-0.4c0.1-0.2,0.1-0.2,0.4-0.1
		c0-0.2-0.1-0.5-0.1-0.7C265.7,144.8,265.9,145,265.9,145.3L265.9,145.3L265.9,145.3z M261.4,163.3c0.4,0.9-1,0-1.4-0.2
		C259.9,162.4,261.2,162.9,261.4,163.3L261.4,163.3L261.4,163.3z M258.6,162.1c0.3,0,0.4-0.1,0.3-0.4c0.5-0.2,1.9,0.5,0.6,0.7
		c-0.8,0.1-1.4,0.2-2.2-0.1c0.2-0.4,0.1-0.6,0.6-0.6C258,161.7,258.5,161.9,258.6,162.1L258.6,162.1L258.6,162.1z M262.2,162.4
		c-0.2,0-0.3-0.2-0.6,0c-0.2-0.2-1.4-0.1-0.9-0.6c0.4-0.4,1.2,0.3,1.6,0c0.2-0.1,0.4,0.2,0.6,0.1c0.3-0.3,0.3-0.3,0.7-0.3
		c0.6,0,1-0.2,1.6,0.1c-0.4,0.4-1.3,0.1-1.9,0.2c-0.2,0-0.4,0.4-0.8,0.3C262.4,162.2,262.4,162.4,262.2,162.4L262.2,162.4
		L262.2,162.4z M262.7,159c0-0.2,0.3-1,0.5-0.4c0-0.4,0.3-0.6,0.4-0.1c-0.2,0-0.4,0.1-0.2,0.3c0.2,0.3,0,0.4-0.2,0.7
		C263.1,159.3,262.9,159.2,262.7,159L262.7,159L262.7,159z M251.4,153.4c0-0.3,0.1-0.7,0.1-1c0.2-0.1,0.4-0.2,0.6-0.3
		c0.1,0.6,1,0.6,1.4,0.7c-0.5-0.5-0.3-0.5,0-1c0.3-0.5,0.7-0.5,1.1-0.6c0.4-0.1,0.6-0.6,0.8-1c0.4-0.6,0.5-0.6,1.1-0.7
		c0.5-0.1,0.2-0.4,0.5-0.8c0.2-0.2,0.8-1.1,1-1.2c0.2,0,0.9,0.6,1.1,0.8c0.1,0.2,0.3,0.5,0.5,0.5c0.3,0.1,0.4,0,0.5,0.3
		c-0.3,0.1-0.6,0.2-0.9,0.3c0.1,0.2,0.2,0.3,0.4,0.5c-0.2,0-1,0-1,0.4c0,0.8,0.2,0.7,0.5,1.4c0,0.1-0.1,0.4-0.1,0.5
		c0.1,0.2,0.4,0.4,0.5,0.5c0.6,0.5,0.3,0.6-0.3,0.5c-0.3-0.1-0.5,0.5-0.5,0.9c0.1,0.7,0.1,0.7-0.5,1.2c-0.4,0.3-0.5,0.4-0.5,0.9
		c0,0.6,0,1.1,0,1.7c-0.3,0-0.3-0.2-0.2-0.5c-0.4,0.2-0.8,0.4-1.2,0.6c-0.1-0.2-0.1-0.6-0.3-0.7c-0.2-0.1-0.4,0.1-0.6,0
		c-0.7-0.5-0.8-0.3-1.6,0.1c0-0.2-0.1-0.5-0.1-0.7c-0.2,0.1-1.2,0.5-1.3,0c-0.1-0.6,0-1.4-0.4-1.8c-0.1,0.3,0,0.1-0.3,0.3
		c0.1-0.4-0.1-0.2-0.1-0.4c0-0.2-0.1-0.3-0.1-0.5c0-0.1,0.2-0.2,0.1-0.3C251.6,153.8,251.4,153.6,251.4,153.4L251.4,153.4
		L251.4,153.4z M264.7,163.4c-0.2,0.3-0.6,0.3-0.9,0.3c0.4-0.4-0.1-0.5,0.2-0.8c0.3-0.3,0.7-0.4,1-0.5c0.1-0.1,0.1-0.3,0.2-0.3
		c0.2-0.1,0.4-0.1,0.5-0.1c0.4-0.1,0.8-0.1,1.2-0.1c-0.2,0.5-1.2,0.8-1.7,1C265,163,264.9,163.2,264.7,163.4L264.7,163.4
		L264.7,163.4z M96.6,136.8c-0.7-0.1-0.9,0.2-1.4-0.2c-0.2-0.6,1.4,0.1,1.8-0.2c-0.4-0.6-0.3-0.8-0.9-1.1c0.6-0.3,0.8-0.1,1.4-0.1
		c0.1,0,0.5-0.1,0.6-0.1c0.2-0.1,0.5,0.1,0.8,0.2c0.3,0.1,0.3-0.1,0.5,0.2c0.2,0.4,0.2,0.4,0.7,0.5c0.2,0,0.6,0.3,0.5,0.5
		c-0.3,0.4-0.2,0.1-0.6,0.1c-0.5,0-0.8,0.2-1.3,0.2c-0.1,0-0.2-0.3-0.4-0.1c-0.1,0.1-0.1,0.7-0.3,0.7c-0.4,0.1-0.3-0.5-0.4-0.6
		C97.1,136.7,96.8,136.8,96.6,136.8L96.6,136.8L96.6,136.8z M145.5,83.4c-0.3-0.1-0.9,0.5-1.2,0.7c-0.2,0-0.5,0.1-0.7,0.1
		c-0.3,0-0.2,0.2-0.4,0.3c-0.4,0.2-0.8,0.2-1.2,0.1c-0.2,0-0.5,0-0.7-0.2c-0.1-0.1-0.2-0.5-0.4-0.4c-0.5,0.1-1.1,0.1-1.6,0.2
		c-0.2-0.6,0.6-0.4,0.8-0.9c-0.1,0-0.1,0-0.2,0c0-0.1,0-0.1,0-0.2c-0.3,0-0.4-0.1-0.2-0.4c-0.4,0-1.5,0.2-1.6-0.3
		c0.6,0,1.3-0.3,1.9-0.2c0-0.1,0-0.1,0-0.2c-0.2,0.1-0.4,0.1-0.7-0.1c0.2-0.1,0.5-0.2,0.7-0.3c-0.3-0.1-0.8-0.3-1.1-0.2
		c-0.6,0.2-0.7,0.3-1.3,0.1c0.2-0.1,0.1-0.2,0.4-0.1c0-0.1,0-0.2,0-0.3c0.2,0.1,0.4,0.2,0.5,0.1c0.1-0.2-0.5-0.2-0.2-0.6
		c0.3-0.3,1.1,0.6,1-0.2c-0.3,0-0.5,0-0.6-0.3c0.6,0,0.6,0.1,1.1,0.5c0.1,0.1,0.5,0.2,0.5,0.3c0,0.2-0.2,0.3-0.4,0.3
		c0.2,0.3,0.3,0.5,0.5,0.8c0.1-0.3,0.2-0.6,0.3-0.8c0.2-0.3,0.6,0,0.3-0.6c0.4-0.1,0.6,0.3,0.8,0.6c-0.1-0.3,0-0.7,0.4-0.7
		c0.4,0,0.5,0.3,0.8,0.7c0-0.2-0.1-0.5-0.1-0.7c0.6,0.3,0.8,0,1.5,0c-0.4-1,1.9-0.1,1.4,0.7c0.4-0.1,0.6,0.1,1,0.3
		c0.2,0.1-0.1,0.5,0.2,0.8c-0.3,0.3-0.5,0.6-0.9,0.4C146.3,83.2,146,83.5,145.5,83.4L145.5,83.4L145.5,83.4z M140,72.8L140,72.8
		c-0.1-0.4-0.5-1.3-0.4-1.7c0.4-1,0.6-2.3,1.3-3.1c0.5-0.5,0.9-1,1.4-1.6c0.1-0.1-0.2-1.3-0.2-1.5c-0.1-0.5,0-1.2-0.4-1.4
		c-0.5-0.3-0.9-0.6-1.4-1c0.7-0.7,1.4-1.3,2.1-2c-0.7-0.5-1.2-0.7-1.5-1.5c-0.3-0.6,0.6-1.5,0.9-2c0.4-0.6,1.1-0.9,1.6-1.2
		c0.6-0.4,1.1-0.8,1.6-1.4c-0.2-0.2-0.4-0.3-0.5-0.5c0.6-0.1,1.4-0.2,1.9-0.5c0.7-0.4,1.4-0.8,2.2-1.2c-0.8-0.3-1.7-0.8-2.5-1
		c-0.6-0.1-1.8-0.2-2.2,0.3c-0.3,0.3-0.4,0.8-0.9,0.7c-0.5-0.1-1-0.2-1.5-0.2c-0.6-0.1-1.7,0.7-2.2,0.9c0.1-0.2,1.1-1.8,0.4-1.9
		c-0.7,0-1.3,0.1-1.8-0.3c0.9-0.3,1.8-0.6,2.7-1c-1.7-0.8-3.3-1.6-5.1-1.8c-2.1-0.3-4-0.7-6.1-0.5c-0.7,0.1-1.5,0.1-2.2,0.2
		c-0.3,0-0.8,0-1,0.1c-0.4,0.2-0.4,1-0.9,0.9c-0.6-0.1-1.2-0.2-1.8-0.3c-0.7-0.1-1.6-0.5-2.3-0.2c-1,0.5-2,0.9-3,1.4
		c0.9,0.6,2,1.1,2.6,2.1c-1.7-0.6-3.3-1.1-5-1.5c-0.5-0.1-1.3,0.2-1.9,0.2c-1.2,0.2-2.4,0.3-3.6,0.5c-0.5,0.1-1.4,0-1.9,0.3
		c-0.7,0.4-1.4,0.7-2.1,1.1c-1.7,0.9-3.4,1.8-5.1,2.6c0.6,0.7,1.4,0.6,2.3,0.7c-0.2,0.5-0.4,1-0.6,1.4c-0.2,0.5-0.3,0.4-0.8,0.5
		c-0.8,0-1.4,0.2-2.2,0.4c-1,0.3-2,0.6-3,0.9c-0.2,0.1-0.2,0.7-0.3,0.9c0,0.2,0.4,0.6,0.5,0.8c0.3,0.4,0.7,1.2,1.1,1.5
		c0.6,0.3,1.2,0.7,1.7,1c0.3,0.2,1.1,0.9,1.4,0.8c0.7-0.1,1.3-0.2,2-0.3c1.2-0.2,2.2,0.1,3.4,0.3c0.6,0.1,1.2,0.2,1.8,0.3
		c0.3,0.1,0.9,1.2,1.1,1.4c0.8,1,1.2,2.3,1.8,3.5c0.3,0.7,0.4,0.7,0.2,1.4c-0.2,0.6-0.6,1-0.1,1.5c0.5,0.5,1.1,0.8,0.9,1.5
		c-0.2,0.7-0.5,1.1,0,1.7c0.6,0.7,0.6,0.7,1.4,0.4c0.6-0.2,1.2-0.4,1.8-0.5c-0.1,0.5-0.1,0.9-0.2,1.3c0,0.1-0.6,0.3-0.7,0.3
		c-0.4,0.2-0.8,0.4-1.2,0.5c-0.1,0-0.1,0.6-0.1,0.7c-0.1,0.6-0.4,1.6-0.2,2.2c0.3,0.8,0.6,1.7,0.9,2.5c0.5,1.4,1.3,2.5,2.1,3.7
		c0.5,0.7,0.9,1.4,1.4,2.1c0.2,0.4,0.9,0.4,1.2,0.6c0.7,0.3,1.5,0.5,2.2,0.8c0.2,0.1,1.2,0.1,1.2,0c0.5-1.4,0.9-2.8,1.4-4.2
		c0.4-1.1,0.8-2.2,1.2-3.3c0.2-0.6,0.2-0.6,0.7-0.8c0.7-0.2,1.5-0.5,2.2-0.7c0.5-0.1,1.1-0.2,1.5-0.5c0.5-0.3,0.9-1.1,1.2-1.5
		c0.3-0.4,0.4-0.7,0.9-0.8c0.7-0.2,1.4-0.4,2.1-0.6c1-0.3,2.2-0.4,3.1-0.9c1.1-0.7,2.2-1.4,3.3-2C140.1,73.6,140.2,73.7,140,72.8
		L140,72.8z M252.1,136.5c-0.1,0.1,0.1,0.2-0.2,0.2c-0.2,0-0.3,0-0.5-0.1c-0.4-0.3-0.3-0.4-0.3-0.9c0.5-0.3,0.9-1.1,1.7-0.6
		c0-0.1,0-0.1,0-0.2c0.3,0,0.4,0.3,0.3,0.6c-0.3,0-0.4,0.4-0.4,0.7C252.7,136.4,252.3,136.4,252.1,136.5L252.1,136.5L252.1,136.5z
		 M248.7,159.6c-0.3-0.6-0.5,0.1-0.9-0.4c0,0.2-0.1,0.3-0.1,0.5c-0.8-0.8-1.5-1.5-2.3-2.3c-0.4-0.4-0.7-0.7-1-1.2
		c-0.2-0.5-0.5-1.5-0.9-2c-0.2-0.2-0.4-0.1-0.5-0.3c-0.1-0.4-0.2-0.8-0.3-1.2c-0.2-0.7-1-0.5-1-1.2c0-0.6-0.8-0.8-1.1-1.1
		c-0.2-0.1-1-1.3-0.9-1.5c0.1-0.2,1.2,0.3,1.5,0.3c0.7,0.1,0.6,0.4,1,0.9c0.3,0.4,0.9,0.8,1.2,1.1c0.4,0.4,1,0.6,1.3,1.1
		c0.2,0.3,0.4,0.2,0.7,0.3c0.5,0.1,0.2,0.2,0.4,0.4c0.3,0.2,0.5,0,0.5,0.5c0,0.2,0.5,0.2,0.6,0.6c0.1,0.3-0.3,0.4-0.2,0.7
		c0,0.2,0.5,0.3,0.7,0.4c0.2,0.1,0.2,0.7,0.2,0.8c0.1,0.3,0.4,0.3,0,0.7c0.5-0.6,1.4,0,1.2,0.7C248.6,157.9,248.8,158.8,248.7,159.6
		L248.7,159.6L248.7,159.6z M250.5,156.4c0.4,0.3,0.4,0.9-0.3,0.7C250.3,156.9,250.1,156,250.5,156.4L250.5,156.4L250.5,156.4z
		 M255.4,161.2c0.9-0.2,0.4,0.5,0.8,1.1c-0.3-0.1-0.7-0.3-1-0.4c-0.6,0.1-0.8-0.1-1.3-0.1c-0.1,0-0.1,0.2-0.2,0.1
		c-0.2,0-0.4,0-0.5-0.1c-0.2,0-0.5-0.1-0.7-0.2c-0.2-0.1-0.5-0.3-0.8-0.3c-0.3,0-0.6,0.2-0.8,0.1c-0.5-0.1-1-0.4-1.5-0.5
		c0-0.1,0-0.2,0.1-0.3c-0.4-0.1-1.2-0.2-0.6-0.8c0.2-0.2,0.2-0.3,0.4-0.3c0.2,0.1,0.5,0.2,0.6-0.1c0.2,0.1,1.1,0.3,1.1,0.4
		c0.4,0.6,0.8,0.5,1.4,0.5c0.2,0,0.4,0.1,0.5-0.1c0.1-0.3,0.2-0.5,0.5-0.2c0.2,0.3,1,0.3,1.3,0.2C254.4,161,255,161.3,255.4,161.2
		L255.4,161.2L255.4,161.2z M248.2,155.9c0.2-0.2,0.3-0.6,0.5-0.2c0-0.1,0-0.2,0-0.2c0.6-0.1,0.2,1,0.9,1c-0.2,0.2-0.2,0.3-0.1,0.5
		c-0.2,0-0.3-0.1-0.5-0.2c-0.2-0.1-0.1-0.2-0.2-0.4c-0.1-0.1-0.2-0.3-0.3-0.3C248.4,156,248.3,156,248.2,155.9L248.2,155.9z"/>
</g>
</svg>
